<svg width="300" height="225" viewBox="0 0 300 225" fill="none" xmlns="http://www.w3.org/2000/svg">
<path fill-rule="evenodd" clip-rule="evenodd" d="M127.967 90.6798C124.853 90.8785 121.714 90.7976 118.597 90.6985C118.29 90.6885 117.556 90.5457 117.369 90.7292C117.154 90.9406 117.199 92.1046 117.164 92.393C116.895 94.5772 116.625 96.7617 116.356 98.946C116.232 99.9488 116.109 100.952 115.985 101.955C115.95 102.24 115.601 103.473 115.768 103.72C116.071 104.17 118.242 104.273 118.814 104.383L125.628 105.696C126.27 105.819 127.908 105.849 128.205 106.355C128.394 106.677 128.279 107.548 128.301 107.913L128.486 110.924C128.729 114.867 128.972 118.81 129.214 122.754C134.037 122.366 138.859 121.979 143.682 121.591C144.855 121.497 146.029 121.402 147.202 121.308C147.481 121.285 148.067 121.344 148.295 121.19C148.793 120.853 149.218 119.41 149.486 118.891C150.171 117.57 150.856 116.248 151.541 114.926C152.201 113.653 152.861 112.379 153.521 111.106C153.69 110.78 154.112 110.236 154.102 109.879C154.089 109.478 153.49 108.758 153.303 108.415C152.755 107.409 152.206 106.402 151.658 105.396C148.942 100.413 146.226 95.4305 143.51 90.4479C143.372 90.1953 143.065 89.2771 142.796 89.1375C142.273 88.8667 140.443 89.4114 139.88 89.4758C135.919 89.928 131.947 90.4258 127.967 90.6798Z" fill="#059669"/>
<path fill-rule="evenodd" clip-rule="evenodd" d="M82.0312 82.12C82.9939 83.2623 83.9566 84.4046 84.9195 85.5469C87.4723 82.396 90.0251 79.2451 92.5781 76.0942C91.2982 75.5223 90.0185 74.9504 88.7388 74.3784C87.6029 73.871 87.748 74.1122 87.0294 75.1185C85.3634 77.4525 83.6972 79.7863 82.0312 82.12Z" fill="black"/>
<path fill-rule="evenodd" clip-rule="evenodd" d="M131.262 156.445C131.258 158.105 131.254 159.766 131.25 161.426C136.328 161.176 141.406 160.926 146.484 160.676C146.254 159.979 146.023 159.282 145.792 158.586C145.612 158.042 145.384 156.398 144.946 156.033C144.468 155.634 142.363 156.045 141.721 156.068C138.234 156.194 134.748 156.319 131.262 156.445Z" fill="black"/>
<path fill-rule="evenodd" clip-rule="evenodd" d="M119.164 30.7617C113.232 34.5095 107.3 38.2575 101.367 42.0052C102.677 43.5371 103.987 45.069 105.296 46.6009C105.61 46.9678 105.666 47.2001 106.025 47.1644C106.442 47.1229 107.145 46.4676 107.492 46.2508C111.698 43.6331 115.903 41.0155 120.108 38.3981C121.381 37.6061 122.653 36.814 123.926 36.0219C122.339 34.2685 120.751 32.5151 119.164 30.7617Z" fill="black"/>
<path fill-rule="evenodd" clip-rule="evenodd" d="M257 89.339C256.785 87.5969 255.907 85.8258 255.264 84.2123C254.507 82.3111 253.709 80.4258 252.892 78.5495C252.375 77.3617 252.187 77.6536 250.835 77.7068C249.254 77.7684 247.674 77.8303 246.094 77.8922C247.311 82.31 248.527 86.7276 249.744 91.1451C249.955 91.9098 250.295 94.7768 250.959 95.164C251.189 95.2981 251.983 95.1255 252.243 95.1159C252.989 95.0878 253.734 95.0599 254.48 95.032C255.493 94.994 256.506 94.956 257.52 94.9181C257.378 93.0564 257.228 91.1924 257 89.339Z" fill="black"/>
<path fill-rule="evenodd" clip-rule="evenodd" d="M156.632 201.197C153.913 200.51 150.955 201.161 148.215 201.18C146.601 201.191 144.99 201.084 143.377 201.167C142.836 201.195 140.364 201.123 140.28 201.448C140.215 201.698 140.707 202.326 140.897 202.43C141.431 202.721 141.807 202.347 142.345 202.208C143.805 201.832 145.512 202.064 147.012 201.993C148.581 201.918 150.15 201.824 151.719 201.752C153.282 201.68 155.277 202.005 156.632 201.197ZM23.4155 60.2568C23.2068 59.7789 23.1211 59.0202 22.6418 58.721C22.1979 58.4435 21.2675 58.646 20.7545 58.6389C19.6635 58.6241 17.2948 58.6664 16.5821 59.6595C15.7156 60.8668 18.2647 61.7277 19.1148 61.7047C20.592 61.6646 21.9359 60.5299 23.4155 60.2568ZM50.5721 45.1024C50.6844 44.7967 50.2898 44.5947 50.0047 44.4972C49.2793 44.2495 48.8021 44.6617 48.1638 44.9717C46.5518 45.755 44.7993 46.2725 43.1037 46.8384C41.6274 47.3309 40.2579 48.0212 38.8103 48.5757C37.7839 48.9689 35.6178 48.8923 35.0266 49.8844C33.8597 51.844 36.9166 50.3742 37.4552 50.1841C39.001 49.6391 40.6461 49.3032 42.1613 48.6803C43.6194 48.0808 45.1063 47.4711 46.5495 46.822C47.2078 46.5258 47.8625 46.2744 48.5339 46.0156C49.1619 45.7737 49.9039 45.1664 50.5721 45.1024ZM94.6845 79.0672C94.2994 78.8311 92.7209 77.5132 92.1905 77.6869C91.7763 77.8229 91.3129 79.3371 91.0546 79.7348C89.7619 81.7253 88.3676 83.6337 86.9814 85.5592C87.5965 85.8901 88.2117 86.2207 88.8271 86.5516C90.0813 83.579 92.4999 81.3545 94.6845 79.0672ZM118.62 89.6916C120.6 89.6963 122.562 89.4481 124.539 89.4756C126.755 89.5065 128.933 89.5664 131.146 89.3855C133.325 89.2073 135.495 89.1986 137.673 89.066C138.358 89.0245 142.174 88.7333 139.939 87.6422C139.187 87.2751 138.283 87.7325 137.466 87.8973C136.519 88.0884 135.564 88.16 134.608 88.2751C133.696 88.385 132.728 88.6881 131.808 88.6657C130.844 88.6422 130.119 88.4697 129.15 88.6092C127.14 88.8986 125.138 88.7367 123.129 88.5503C121.743 88.4217 118.702 87.6427 118.62 89.6916ZM172.5 202.428C173.774 201.4 175.789 201.845 177.304 201.518C178.976 201.156 177.659 199.384 177.018 198.44C176.35 197.457 175.343 195.491 174.22 196.947C173.046 198.468 172.908 200.612 172.5 202.428ZM132.388 157.776C132.345 158.7 131.888 159.65 132.849 159.967C133.771 160.272 135.353 159.809 136.309 159.727C137.554 159.619 138.779 159.414 140.021 159.285C140.575 159.228 141.132 159.186 141.689 159.237C142.073 159.271 142.998 159.688 143.341 159.516C143.762 159.304 143.966 158.161 143.622 157.721C143.249 157.243 140.996 157.716 140.19 157.778C137.563 157.977 135.003 157.659 132.388 157.776ZM132.227 154.812C133.436 154.314 134.873 154.548 136.146 154.541C137.644 154.533 139.125 154.615 140.62 154.712C141.281 154.755 143.21 155.245 143.765 154.822C144.057 154.6 144.161 152.693 143.914 152.401C143.511 151.923 142.244 152.498 141.725 152.575C140.335 152.782 138.917 152.777 137.515 152.764C136.202 152.752 134.886 152.694 133.574 152.69C132.02 152.687 132.23 153.481 132.227 154.812ZM90.6302 76.6444C90.1362 76.3579 88.5147 75.0418 87.9091 75.2417C87.3937 75.4118 86.8466 76.9824 86.5388 77.476C85.9524 78.4163 85.3331 79.3384 84.7253 80.2653C84.337 80.8578 83.3012 81.9286 83.4782 82.7298C83.5724 83.1562 84.4349 83.893 84.8704 83.7636C85.3199 83.6302 86.06 81.9584 86.3096 81.6286C87.6596 79.8454 89.3557 78.5037 90.6302 76.6444ZM247.861 78.5755C249.591 81.9672 249.814 85.8022 250.751 89.4423C250.969 90.2894 251.306 91.1257 251.491 91.9778C251.594 92.4526 251.404 93.2662 251.67 93.6702C252.335 94.6821 255.414 94.3608 256.078 93.4701C256.468 92.947 256.165 92.4043 255.999 91.8611C255.775 91.1276 255.882 90.4888 255.752 89.7565C255.492 88.2891 254.17 86.808 253.542 85.4536C252.857 83.9741 252.542 82.194 251.56 80.8724C250.903 79.988 249.06 78.1631 247.861 78.5755ZM135.029 210.88C137.345 210.576 140.987 209.887 140.865 206.775C140.745 203.682 136.69 203.133 134.432 202.862C133.771 202.782 133.699 202.744 133.027 203.146C132.566 203.421 132.106 203.715 131.676 204.037C130.837 204.663 129.888 205.515 129.709 206.607C129.255 209.38 132.997 210.634 135.029 210.88ZM121.795 35.176C122.845 35.2872 121.448 34.2663 121.183 34.1427C120.379 33.7675 119.486 33.8356 118.633 33.9782C116.568 34.3233 114.74 36.0569 112.976 37.1288C111.107 38.2634 109.263 39.5465 107.315 40.537C106.424 40.9902 105.688 41.3747 104.948 42.0504C104.571 42.395 104.44 42.634 103.933 42.6337C103.652 42.6337 103.025 41.9765 102.725 42.3567C101.89 43.418 106.1 43.7613 106.539 43.6894C108.735 43.3303 110.639 42.4975 112.523 41.3678C114.446 40.2149 116.488 39.2788 118.421 38.1565C119.257 37.6711 119.972 37.0276 120.734 36.4512C120.843 36.3685 121.04 36.0902 121.15 35.9846C121.328 36.0366 121.476 35.9906 121.595 35.8467C121.657 35.6217 121.724 35.3981 121.795 35.176ZM164.262 201.226C162.127 201.984 158.636 202.574 157.634 205.078C156.5 207.916 161.6 209.939 163.602 210.093C165.705 210.254 169.442 209.403 169.735 206.789C169.903 205.283 168.71 204.323 167.595 203.572C166.456 202.805 164.829 202.64 164.262 201.226ZM27.6364 43.2004C26.1271 43.3736 25.1013 43.5226 23.899 44.502C22.9014 45.315 22.0794 46.1363 21.673 47.3903C20.7331 50.2887 23.0559 52.7772 26.0398 52.4397C26.3687 52.4025 26.69 52.2808 27.0239 52.3143C27.3307 52.3452 27.5452 52.5654 27.8044 52.6095C28.4156 52.7133 28.534 52.6061 29.0355 52.1305C30.0584 51.1601 31.085 50.0938 31.6516 48.7843C33.0161 45.6306 30.9642 43.2569 27.6364 43.2004ZM61.9514 37.1599C62.098 33.8958 57.1293 33.3595 54.8381 33.6077C52.2368 33.8897 47.9688 36.5309 48.9596 39.7713C49.8316 42.6234 54.7511 42.4061 56.8774 41.8262C57.3321 41.7024 58.039 41.433 58.4867 41.5241C59.159 41.6604 59.1917 42.2138 59.8253 41.7129C60.2236 41.3979 60.5832 40.4808 60.8644 40.029C61.4246 39.1288 61.7142 38.1903 61.9514 37.1599ZM131.789 171.205C131.721 171.903 131.454 172.802 132.206 173.135C132.671 173.34 133.961 173.115 134.428 173.131C136.377 173.201 138.378 173.046 140.315 173.201C140.888 173.247 142.6 173.828 143.11 173.438C143.608 173.057 143.219 171.865 143.186 171.332C143.051 169.155 143.342 167.038 143.436 164.873C143.461 164.292 143.701 162.879 143.255 162.448C142.712 161.924 141.508 162.227 140.861 162.293C138.843 162.497 136.767 162.796 134.738 162.801C134.181 162.802 132.948 162.407 132.465 162.615C131.723 162.935 131.898 164.052 131.857 164.765C131.733 166.914 131.651 169.053 131.789 171.205ZM86.4174 73.7455C83.7715 71.7854 81.0288 69.9266 78.3828 68.0206C77.4406 67.3422 76.7403 66.3734 75.8574 65.7111C75.3038 65.2952 75.1349 65.1143 74.3782 65.5157C73.5035 65.9796 72.6905 66.7085 71.8836 67.2841C71.206 67.7674 70.5252 68.2466 69.8467 68.728C69.2179 69.174 69.0074 69.2754 69.4529 70.0161C70.2369 71.3193 71.8649 72.4954 72.9292 73.5673C75.5559 76.2124 78.1217 78.9489 81.0728 81.2339C82.0873 78.2742 84.1862 75.8675 86.4174 73.7455ZM116.079 28.0597C111.486 26.2448 111.137 20.0995 109.531 16.1824C109.033 18.864 110.353 23.2221 108.125 25.328C106.755 26.623 105.961 24.7954 105.225 23.8006C104.104 22.286 102.902 20.8378 101.832 19.2846C102.16 21.1584 103.102 23.2614 102.926 25.1669C102.787 26.6628 101.831 28.712 100.44 27.0156C99.4839 25.8506 98.2605 24.7608 97.146 23.7275C95.8063 22.4853 94.2777 21.6828 92.8214 20.6234C93.3854 23.4257 94.4603 25.9132 96.045 28.2847C96.858 29.5015 97.748 30.6703 98.5153 31.9172C99.1426 32.9365 99.4385 34.2042 100.27 35.0701C101.046 35.8789 102.188 36.5248 103.117 37.1462C104.441 38.0308 104.759 37.7792 105.976 36.9384C108.332 35.3112 110.891 34.0083 113.262 32.4017C112.823 31.8213 112.122 31.248 112.145 30.458C112.164 29.8184 112.653 29.2361 113.308 29.3127C113.822 29.3727 114.059 29.9106 114.63 29.7291C115.113 29.5755 115.774 28.4223 116.079 28.0597ZM274.25 76.9985C272.121 77.2497 270.134 78.0083 267.952 77.8699C267.069 77.814 266.41 77.9769 266.022 77.0907C265.713 76.3827 266.03 75.3069 265.057 75.1142C264.336 74.9716 263.443 75.6412 262.91 76.0202C261.953 76.7012 261.104 77.3056 260.02 77.7868C258.097 78.6397 256.146 79.3809 254.045 79.4741C254.553 81.0179 255.088 82.5639 255.792 84.0311C256.467 85.4375 257.131 86.634 257.332 88.2007C257.417 88.8711 257.417 89.6018 258.076 89.8965C258.721 90.1859 259.872 89.9475 260.571 89.9599C262.172 89.9887 263.773 90.0261 265.374 90.0298C266.593 90.0322 267.807 90.323 268.994 90.3061C270.471 90.2847 272.142 89.643 273.581 89.3383C276.31 88.761 280.128 88.4029 282.303 86.5418C280.29 86.2252 278.24 86.4407 276.263 86.8743C275.358 87.0731 273.281 88.1075 272.675 87.0718C271.952 85.8381 273.366 84.1349 274.364 83.5616C275.49 82.9144 277.171 82.9843 277.965 81.818C276.466 81.9445 274.886 81.9999 273.437 82.4409C272.326 82.7786 270.893 83.7409 270.454 82.0744C269.741 79.3743 272.393 78.0939 274.25 76.9985ZM115.391 100.115C115.768 96.5406 116.458 92.9285 116.519 89.3301C116.545 87.7755 114.788 88.0536 113.559 87.6118C111.772 86.9699 110.02 86.2099 108.266 85.4856C106.516 84.7636 104.758 84.0673 103.003 83.3601C101.409 82.7184 99.8798 81.748 98.2732 81.1776C97.3987 80.8671 97.3307 81.1702 96.8232 81.9727C96.3297 82.7533 95.8111 83.5175 95.2743 84.269C94.1469 85.8479 92.9399 87.3675 91.7062 88.864C95.4183 91.0988 99.2929 93.164 103.123 95.1894C107.032 97.2565 111.284 98.5079 115.391 100.115ZM194.686 86.5558C196.649 86.5606 198.561 86.278 200.516 86.2181C202.449 86.1589 204.317 86.2437 206.234 86.2939C208.075 86.3419 209.879 86.7153 211.715 86.8022C212.162 86.8233 212.626 86.8215 213.07 86.8711C213.516 86.921 213.781 87.0868 214.195 87.1571C215.213 87.3298 216.205 87.0853 217.232 87.1402C221.02 87.3425 224.752 88.1207 228.541 88.3179C232.436 88.5207 236.238 88.8231 240.115 89.2902C242.164 89.5371 244.217 89.6821 246.276 89.8265C246.698 89.8561 247.602 90.122 247.833 89.6403C248.114 89.0554 247.161 87.0573 246.985 86.438C246.757 85.6334 246.57 84.8106 246.264 84.0303C246.085 83.5743 245.707 82.0855 245.343 81.796C244.836 81.3926 244.079 81.7802 243.487 81.8658C242.288 82.039 241.069 82.1422 239.863 82.2611C238.078 82.4375 236.292 82.8592 234.508 82.9128C232.495 82.973 230.491 82.8866 228.48 82.8116C224.453 82.6609 220.327 82.7388 216.32 82.3273C211.69 81.8518 207.038 81.6585 202.397 81.3094C201.296 81.2265 200.193 81.2056 199.092 81.1396C198.304 81.0923 196.696 80.5394 195.96 80.7958C195.212 81.0564 195.354 81.9415 195.269 82.6294C195.108 83.9421 194.899 85.2508 194.686 86.5558ZM146.47 122.981C143.676 123.41 140.935 123.579 138.11 123.66C136.864 123.695 135.626 123.755 134.385 123.88C133.348 123.984 132.766 124.03 132.728 125.166C132.559 130.148 132.288 135.077 132.135 140.061C132.048 142.875 132.148 145.693 132.138 148.508C132.134 149.576 131.915 150.347 133.09 150.471C134.517 150.623 136.014 150.424 137.449 150.437C138.77 150.45 140.092 150.483 141.412 150.511C142.261 150.53 143.834 150.952 144.119 149.925C144.209 149.596 144.046 149.019 144.054 148.656C144.07 147.98 144.153 147.297 144.194 146.621C144.288 145.071 144.356 143.519 144.45 141.969C144.835 135.616 145.871 129.316 146.47 122.981ZM114.477 43.901C116.32 45.315 118.416 46.2878 120.386 47.5244C121.331 48.1175 122.243 48.7534 123.168 49.375C124.12 50.0146 125.226 50.402 126.126 51.1123C127.866 52.4873 130.02 53.3634 131.932 54.5565C133.876 55.7688 135.812 56.9832 137.8 58.1224C138.679 58.6265 139.641 58.9294 140.543 59.3841C141.624 59.9294 142.604 60.6437 143.7 61.1647C146.046 62.2804 148.389 63.3974 150.725 64.5347C155.31 66.7668 160.01 68.8292 164.691 70.8519C165.689 71.2829 166.738 71.4722 167.789 71.7267C168.286 71.8469 168.915 71.9092 169.363 72.1479C169.502 72.2224 169.649 72.233 169.76 72.3579C169.971 72.5974 169.792 72.9327 169.922 73.111C170.651 74.1089 172.675 71.3048 173.146 70.6253C173.873 69.5754 173.578 69.4054 172.455 68.9699C171.323 68.5305 170.18 68.1162 169.06 67.6467C166.996 66.7819 164.886 65.8035 162.915 64.7441C160.864 63.6419 158.729 62.7319 156.7 61.5824C154.425 60.2933 152.167 58.9777 149.866 57.7342C145.984 55.6362 142.417 52.9911 138.645 50.7138C136.562 49.4566 134.604 47.9604 132.589 46.5762C130.623 45.2252 128.759 43.7169 126.75 42.4547C125.646 41.7604 124.497 41.1827 123.465 40.3807C122.693 39.7816 121.923 39.1668 120.956 39.6699C119.911 40.2133 118.924 41.127 117.909 41.7581C116.764 42.4705 115.621 43.1864 114.477 43.901ZM200.034 67.2839C199.437 66.9707 197.24 66.1349 198.271 65.1111C199.005 64.3826 200.74 65.3506 201.451 65.5917C201.436 64.5843 201.438 63.8896 201.114 62.9292C200.788 61.964 200.879 61.2341 201.672 60.5027C202.035 60.1681 203.352 59.8795 203.505 59.4406C203.742 58.7588 202.561 58.9751 202.158 58.8797C200.027 58.3759 200.156 56.1422 200.103 54.4321C200.041 52.4215 199.57 50.4883 198.016 49.1815C197.314 48.5913 197.061 48.5902 196.197 48.9779C195.878 49.1207 195.591 49.3505 195.239 49.4138C194.742 49.5033 194.409 49.1793 193.966 49.2013C193.281 49.2351 192.581 50.3692 191.914 50.7315C191.049 51.201 190.199 51.0608 189.345 51.3967C188.585 51.6953 187.851 52.5055 187.142 52.9364C186.177 53.5232 186.397 54.0991 186.459 55.252C186.51 56.214 186.479 56.8451 185.533 57.2019C185.228 57.317 184.692 57.2653 184.432 57.4504C184.049 57.7237 184.257 57.9291 184.133 58.3862C183.82 59.5428 183.157 58.837 182.31 58.6825C181.279 58.4942 180.143 59.222 180.682 60.3287C180.874 60.7248 181.288 61.0855 181.702 61.2088C182.192 61.3543 182.803 60.9534 183.255 61.1343C184.407 61.5962 183.486 62.6899 183.541 63.4354C184.241 63.0559 184.478 61.9682 185.201 63.174C185.724 64.0454 185.516 65.3691 185.386 66.3206C185.085 68.5218 184.41 71.2184 182.978 72.9842C182.772 73.2385 182.464 73.7162 182.077 73.656C181.754 73.6061 181.715 73.1878 181.437 73.0809C180.839 72.8506 179.923 73.1915 179.694 73.7453C179.307 74.6811 179.347 76.054 179.317 77.0445C179.281 78.1844 179.148 79.4741 179.424 80.5924C179.896 82.5024 181.673 83.1673 183.401 83.5893C184.365 83.8241 185.42 84.0982 186.395 83.7681C187.459 83.4079 188.19 82.4417 188.94 81.6619C189.503 81.0757 190.597 80.4084 190.67 79.5605C190.705 79.1636 190.423 78.6164 190.358 78.2101C190.256 77.5649 190.228 76.913 190.245 76.2602C190.276 75.0611 190.612 73.8422 190.509 72.643C190.404 71.4165 189.492 71.3283 188.996 70.3834C188.7 69.8197 188.63 68.9419 189.35 68.7502C189.768 68.6388 190.551 68.9562 191.004 68.9884C191.695 69.0375 192.395 69.0483 193.088 69.0552C194.365 69.0681 195.327 69.0027 196.483 68.4465C197.673 67.8746 198.735 67.5178 200.034 67.2839ZM170.426 201.669C170.474 200.623 170.62 199.577 170.944 198.579C171.219 197.731 171.81 196.988 171.909 196.112C172.117 194.282 171.51 192.563 169.747 191.904C168.037 191.263 166.185 191.274 164.399 191.394C163.363 191.464 162.484 191.109 161.467 191.156C160.396 191.205 159.451 191.058 158.388 190.945C156.413 190.736 154.73 189.866 152.812 189.498C151.873 189.318 151.549 189.719 150.974 190.379C150.342 191.107 149.629 191.719 148.827 192.253C147.595 193.075 145.39 194.584 145.273 192.037C145.174 189.9 147.315 188.316 148.637 186.932C147.297 186.363 147.412 184.25 145.856 185.1C145.181 185.469 144.648 186.015 144.024 186.458C143.499 186.83 142.294 187.868 141.604 187.787C140.629 187.673 140.525 186.288 140.671 185.519C140.936 184.124 142.395 183.32 143.431 182.501C144.056 182.005 144.992 181.615 145.524 181.034C146.089 180.415 145.963 179.722 145.944 178.946C145.936 178.592 146.201 177.26 146.057 176.955C145.835 176.484 145.067 176.609 144.52 176.56C143.503 176.469 142.495 176.291 141.483 176.195C140.689 176.12 139.927 176.299 139.133 176.328C137.128 176.402 135.099 176.297 133.091 176.291C132.727 176.29 131.2 176.03 130.946 176.345C130.727 176.617 130.936 177.876 130.935 178.201C130.928 180.222 130.934 182.241 130.995 184.261C131.113 188.247 130.98 192.339 130.162 196.257C130.013 196.967 129.547 197.754 130.266 198.103C130.819 198.372 132.297 197.954 132.9 197.915C134.857 197.787 136.836 197.913 138.782 197.771C142.171 197.523 145.676 197.751 149.132 197.831C153.731 197.938 158.303 198.435 162.9 198.553C164.898 198.604 166.931 198.24 168.903 198.3C169.678 198.324 169.897 198.52 169.941 199.351C169.993 200.338 169.564 200.868 170.426 201.669ZM73.9379 60.7113C72.1717 57.7276 70.5067 54.6851 68.7423 51.7006C67.9452 50.3528 67.0502 49.0716 66.1605 47.7846C65.7047 47.1252 65.2008 46.4589 64.8524 45.7328C64.533 45.0679 64.438 44.3034 64.0621 43.6651C63.351 45.2374 61.8245 46.0998 60.2271 46.6625C58.9857 47.0998 57.7747 47.7259 56.4796 47.9958C53.0924 48.7024 49.7417 50.2248 46.4178 51.3286C39.36 53.6716 31.816 54.9584 25.0208 58.0028C27.3394 60.298 26.619 65.1917 30.4878 65.9318C32.027 66.2265 33.6344 65.7528 35.1076 65.3469C36.9678 64.8344 38.8292 64.3258 40.6912 63.8188C42.7115 63.2682 44.7521 62.841 46.789 62.3604C47.8119 62.119 48.8414 61.9516 49.8665 61.734C50.7203 61.5529 50.7306 61.3754 51.178 60.5711C51.9345 59.2114 53.338 57.8206 54.525 59.6144C55.0083 60.345 54.9059 61.2621 55.3295 61.9862C55.6914 62.6046 56.4651 62.9255 57.009 63.3435C57.3865 62.2777 57.8373 60.8343 58.6713 60.0157C59.5813 59.1227 60.4853 59.8412 60.8129 60.8909C61.2065 62.1523 60.6264 63.6873 60.3727 64.9284C60.2487 65.535 60.0134 66.2321 60.1559 66.8542C60.3452 67.681 61.0656 68.5334 61.4948 69.2509C65.5063 66.2609 69.6043 63.2075 73.9379 60.7113ZM152.362 110.944C151.188 109.352 149.946 107.941 149.064 106.157C148.122 104.251 147.36 102.197 146.354 100.339C145.356 98.4944 144.437 96.6143 143.526 94.7199C142.89 93.3977 142.166 90.2234 140.345 90.3029C139.435 90.3428 138.507 90.6705 137.592 90.7602C136.519 90.8659 135.442 90.8598 134.37 90.9908C132.02 91.2783 129.732 91.7925 127.359 91.9316C125.321 92.0513 123.256 92.1125 121.215 92.0238C120.659 91.9998 119.211 91.5664 118.696 91.8147C118.094 92.1041 118.295 93.2329 118.244 93.8107C118.053 95.9837 117.759 98.1585 117.429 100.314C117.372 100.682 116.804 102.519 117.059 102.829C117.451 103.308 119.136 102.988 119.685 103.03C121.853 103.197 123.983 103.692 126.142 103.932C127.237 104.053 128.334 104.081 129.435 104.085C130.505 104.089 132.066 103.794 133.081 104.16C133.733 104.396 134.104 104.951 133.893 105.657C133.661 106.436 132.905 106.61 132.205 106.755C131.692 106.862 130.202 106.803 129.878 107.275C129.528 107.786 130.141 108.749 130.314 109.234C130.646 110.164 130.458 110.563 130.433 111.472C130.407 112.428 130.961 113.27 130.887 114.238C130.815 115.183 130.776 115.938 130.868 116.902C130.949 117.749 130.892 118.677 131.011 119.5C131.286 121.404 135.404 120.252 136.681 120.224C139.323 120.165 141.974 120.592 144.605 120.465C145.379 120.428 147.174 120.569 147.72 119.911C148.273 119.246 148.361 117.727 148.718 116.903C149.65 114.75 151.039 112.863 152.362 110.944ZM175.879 68.5617C175.686 70.7711 175.579 72.4727 174.256 74.332C172.844 76.3172 171.219 76.1393 168.989 76.3576C166.987 76.5536 165.416 77.2151 163.808 78.3986C161.917 79.7905 159.877 80.9463 157.862 82.1443C154.028 84.4235 149.456 85.0538 145.102 85.7311C144.008 85.9017 141.987 86.3916 143.275 87.6889C144.66 89.0837 145.435 91.1418 146.366 92.8868C148.499 96.8876 150.133 101.185 152.566 105.017C153.549 106.565 154.725 108.433 156.234 109.526C157.666 110.563 160.54 108.637 161.998 108C163.893 107.172 165.881 106.543 167.666 105.521C169.331 104.568 171.025 103.746 172.775 102.961C174.493 102.19 176.157 101.423 177.957 100.86C180.075 100.198 182.312 99.9637 184.463 99.387C186.67 98.7957 188.412 98.1688 190.195 96.7062C191.024 96.0267 192.034 95.347 192.368 94.2731C192.709 93.1743 192.458 91.7729 192.406 90.6464C192.352 89.4687 192.169 88.2627 192.193 87.0847C192.217 85.8972 192.799 84.9654 193.151 83.8618C193.706 82.1206 194.337 78.9637 192.58 77.791C192.456 79.6513 191.8 81.3205 191.186 83.0654C190.594 84.7462 189.622 85.7742 188.169 86.7541C187.616 87.127 187.018 87.6461 186.364 87.8154C185.67 87.9952 184.699 87.9031 183.978 87.9107C182.355 87.9279 180.597 87.5027 179.347 86.409C176.817 84.1945 176.265 80.2257 176.509 77.0775C176.65 75.2668 176.948 73.4426 177.778 71.8089C178.064 71.2472 178.631 70.6478 178.315 69.99C177.983 69.3013 176.499 68.8844 175.879 68.5617ZM125.965 107.142C122.981 106.752 119.873 106.435 116.975 105.593C115.92 105.286 114.648 104.899 114.637 103.634C114.634 103.246 114.924 102.545 114.757 102.179C114.586 101.806 113.517 101.78 113.023 101.682C107.274 100.542 101.935 98.3135 96.8034 95.5232C91.6133 92.7006 86.8192 89.3702 81.9219 86.081C77.1439 82.8721 73.174 78.9531 69.2023 74.8319C68.6508 74.2594 68.0847 73.7014 67.515 73.1469C67.0992 72.7421 66.5218 71.9177 65.9753 71.698C64.993 71.3029 63.6198 72.7991 62.7512 73.2446C61.6214 73.8239 60.2738 73.9116 59.5281 72.6906C59.0356 71.8839 59.4935 71.7365 59.5639 70.9776C59.622 70.3536 59.1949 69.9998 58.8193 69.5654C58.5297 70.2493 58.1443 71.5004 57.1583 71.3449C56.272 71.2055 56.1747 69.9839 56.1116 69.2873C56.038 68.4753 56.291 67.4439 55.7416 66.7866C55.3092 66.2696 54.4646 65.8917 53.9112 66.3602C52.7981 67.3023 53.52 70.1086 51.949 70.8081C49.7338 71.7941 49.9498 67.2947 49.9029 66.3953C44.9436 66.9437 40.2824 69.1099 35.3176 69.8189C33.2971 70.1075 30.9632 70.0127 29.1998 68.8593C27.5784 67.7991 25.8944 65.466 25.2012 63.6757C23.5381 64.9083 21.7993 65.8534 19.6638 65.3036C17.4929 64.7444 15.5831 63.54 14.7855 61.358C13.9847 59.1678 14.2163 57.5 16.2154 56.2639C17.0334 55.758 17.6802 55.5103 18.5804 55.266C19.5773 54.9956 20.8399 54.7997 21.7811 54.3714C20.8107 52.9536 19.7068 51.5646 19.2657 49.8704C18.7682 47.9596 19.0165 45.8099 19.788 44.0031C21.1826 40.7377 25.1028 38.5529 28.634 39.2991C31.7157 39.9503 33.8964 42.6181 34.7716 45.536C35.1693 46.8627 34.8201 47.6832 36.4429 46.9654C38.2856 46.1503 39.8983 44.9509 41.8017 44.2316C43.453 43.6073 45.2538 43.0829 46.7837 42.1867C47.5756 41.723 47.5384 41.6831 47.2155 40.832C46.8146 39.7749 46.5669 38.7908 46.6563 37.6421C46.9119 34.3532 49.6341 32.0218 52.5472 30.9396C55.8497 29.7128 59.9448 30.1973 62.4196 32.8485C63.6219 34.1366 64.4425 35.8296 64.5475 37.602C64.5944 38.3876 64.126 39.5819 64.3871 40.3062C64.6145 40.9366 65.6904 41.4198 66.1056 42.0224C66.764 42.9788 67.0692 44.1236 67.7225 45.0964C68.2891 45.9387 68.8631 46.7742 69.4076 47.6317C70.7301 49.7133 71.9699 51.8461 73.0508 54.064C73.5454 55.0785 74.0097 56.1076 74.4628 57.1414C74.7741 57.8504 75.0307 59.1457 75.5905 59.7105C76.1557 60.2814 76.9985 60.0987 77.4839 60.8214C78.0953 61.7314 77.5145 62.536 77.0299 63.3287C80.7143 64.4079 82.9768 67.5276 85.925 69.8139C88.9014 72.1213 92.1683 74.1197 95.3679 76.0983C98.6984 78.158 101.968 80.1211 105.594 81.6178C108.973 83.0126 112.239 84.6567 115.608 86.0689C116.08 86.2669 116.448 86.5294 116.915 86.222C117.347 85.9374 117.434 85.0197 117.886 84.6479C119.03 83.7058 121.721 84.2286 123.082 84.2072C125.046 84.1766 127.038 84.0657 129 84.1671C129.665 84.2011 130.307 84.466 130.957 84.3783C131.955 84.2442 132.886 84.0403 133.924 83.9983C134.788 83.9632 135.651 83.8993 136.516 83.9302C136.926 83.945 137.62 84.1211 137.988 83.8418C138.447 83.494 138.171 82.659 138.484 82.1528C138.688 81.8248 139.09 81.735 139.286 81.4763C139.261 81.5093 139.6 80.9252 139.506 80.9994C140.111 80.5222 141.803 80.3778 142.517 80.5478C142.724 80.5969 142.757 80.9444 143.017 80.9452C143.276 80.946 143.296 80.6846 143.479 80.622C143.669 80.5568 143.719 80.294 143.973 80.2542C144.254 80.2098 144.613 80.5254 144.917 80.5431C145.259 80.5626 145.586 80.3358 145.904 80.2473C146.327 80.1301 146.654 80.2162 147.006 80.1744C147.649 80.0981 148.34 80.0258 149.008 79.9476C149.979 79.8341 150.925 79.5309 151.872 79.3004C152.287 79.1992 152.703 79.0815 153.131 79.049C153.626 79.0112 154.269 79.2441 154.736 79.134C155.135 79.04 154.81 78.8974 155.156 78.7775C155.53 78.6479 155.934 78.6122 156.314 78.481C157.185 78.1794 157.989 77.6782 158.772 77.2005C160.595 76.0875 162.227 74.7006 164.029 73.5578C163.617 72.9589 162.085 72.8575 161.437 72.6457C160.545 72.3542 159.67 72.0127 158.797 71.6684C156.814 70.8852 154.845 70.0642 152.876 69.244C149.142 67.6884 145.387 66.1875 141.818 64.2788C138.466 62.4861 134.886 61.0889 131.562 59.232C129.871 58.2874 128.178 57.293 126.534 56.2684C125.002 55.3141 123.354 54.6632 121.767 53.7904C118.668 52.0854 115.821 49.9641 112.71 48.2953C111.975 47.9013 111.159 47.0668 110.367 46.8524C109.685 46.6681 108.994 47.0483 108.378 47.315C107.725 47.5976 107.113 48.0613 106.381 48.0771C105.574 48.0946 104.651 47.6602 103.891 47.3969C102.477 46.9079 101.249 45.5522 100.734 44.1405C100.483 43.4502 100.367 42.6834 100.274 41.9572C100.164 41.0966 100.455 40.0847 100.245 39.2661C99.8463 37.7092 98.0041 36.2473 96.9741 35.1306C95.695 33.744 94.5864 32.1921 93.5766 30.6014C91.3195 27.0452 89.7534 22.827 91.0116 18.6413C91.2034 18.0034 91.5453 16.9492 92.11 16.5246C92.8937 15.9347 93.2292 16.6231 93.9071 16.9651C94.7491 17.3899 95.5478 17.6374 96.3373 18.2146C97.294 18.9141 98.0811 19.7673 98.9632 20.5497C98.9677 18.743 98.6865 17.1592 99.0764 15.3498C99.2766 14.4211 99.7245 12.4892 100.906 12.3236C102.132 12.1517 103.01 14.373 103.544 15.1834C104.535 16.6894 105.644 18.1024 106.747 19.5265C106.89 17.3171 106.597 12.0646 109.375 11.1955C111.863 10.4165 113.15 17.124 113.753 18.625C114.315 20.0253 115.105 21.4087 115.959 22.6527C116.854 23.9562 117.83 23.292 119.217 23.3533C120.499 23.4101 121.076 24.2971 121.061 25.5546C121.043 27.1455 119.779 28.3077 118.904 29.5081C120.798 30.4234 123.249 31.6138 124.38 33.4984C124.631 33.9159 124.803 34.3952 124.819 34.8879C124.833 35.3751 124.388 36.2671 124.619 36.7173C124.788 37.0466 125.359 37.166 125.663 37.3453C126.292 37.7163 126.85 38.1961 127.471 38.5806C131.542 41.1008 135.37 44.1122 139.297 46.7732C142.843 49.1756 146.6 51.3159 150.187 53.717C154.748 56.7701 159.543 59.3677 164.426 61.8777C165.552 62.4568 166.596 63.0998 167.677 63.748C168.786 64.413 170.11 64.8621 171.293 65.4006C172.123 65.7776 173.028 66.4954 173.898 66.7304C174.934 67.01 175.371 65.911 176.578 66.1959C177.619 66.4418 178.755 66.5506 179.38 67.488C179.929 68.31 179.877 69.5675 180.761 70.0988C181.785 70.7146 182.072 70.0544 182.308 69.1991C182.577 68.226 183.338 67.1133 182.405 66.4127C181.523 65.751 180.274 65.6781 179.243 65.4333C178.72 65.3095 178.027 64.8571 177.529 64.8162C176.907 64.765 176.762 65.3443 176.233 65.3451C175.952 65.3454 175.705 65.0736 175.438 64.9873C175.377 64.9678 175.219 65.1893 175.146 65.169C174.884 65.0956 174.863 65.0082 174.608 64.9033C173.698 64.5297 172.495 63.9405 172.769 62.8048C172.917 62.1956 173.915 61.2157 173.218 60.6569C172.563 60.1314 171.685 61.227 171.324 60.1306C171.068 59.3519 171.692 59.143 170.898 58.5021C170.313 58.0308 169.775 57.9027 170.099 57.0384C170.307 56.4818 171.389 55.6354 171.078 54.9642C170.639 54.0144 168.968 54.9748 169.13 53.2586C169.245 52.0294 170.79 51.1421 170.8 49.9327C170.808 49.0671 169.987 49.0732 169.773 48.5107C169.563 47.9549 169.755 47.957 170.063 47.5667C170.292 47.2768 170.44 47.1804 170.611 46.8387C170.818 46.4233 171.177 45.8854 171.042 45.4022C170.921 44.9678 170.412 44.7095 170.285 44.2284C169.803 42.4156 173.631 38.2972 174.607 40.7929C175.331 39.955 176.281 38.2009 177.561 38.3413C178.335 38.4264 178.004 38.6471 178.273 39.0942C178.468 39.4187 179.008 39.5835 179.162 39.9344C179.465 38.9923 179.143 37.2463 179.986 36.5549C180.808 35.8811 181.325 37.0667 181.674 37.7263C181.899 37.1039 182.044 35.936 182.82 35.7126C183.65 35.4741 184.168 36.5127 184.572 37.0416C185.008 36.4227 185.824 34.5985 186.765 34.8208C187.471 34.9875 187.82 36.1655 188.149 36.7092C188.922 36.2022 190.138 34.9811 191.138 35.1103C192.111 35.2357 192.025 36.1483 193.164 35.7749C193.989 35.504 194.847 34.7844 195.723 34.7305C196.647 34.6738 197.136 35.3212 198.161 35.1641C199.25 34.9975 199.417 34.744 200.127 35.6331C200.477 36.072 200.384 36.2645 200.992 36.3564C201.507 36.4343 201.957 36.0944 202.496 36.3086C202.895 36.4668 203.173 36.8362 203.34 37.2159C203.538 37.6643 203.309 38.4414 203.506 38.7942C203.885 39.4729 205.317 38.874 205.959 39.3453C206.826 39.9814 206.01 40.9471 206.472 41.6519C206.842 42.2178 207.887 42.0736 208.302 42.8373C208.679 43.5289 208.591 44.4431 208.154 45.084C207.97 45.3533 207.454 45.5764 207.333 45.8202C207.084 46.323 207.293 46.2643 207.438 46.7782C207.715 47.7611 207.493 48.1318 206.736 48.8041C206.298 49.1931 206.206 49.0814 206.177 49.6723C206.155 50.1284 206.543 50.5512 206.471 51.0616C206.354 51.8908 205.538 52.4118 205.292 53.2269C204.976 54.276 204.112 54.8501 203.461 55.7136C204.231 56.1781 205.242 56.5631 205.616 57.435C206.024 58.3862 205.948 59.7401 205.659 60.705C205.382 61.6297 204.789 62.2199 204.218 62.9537C203.523 63.8473 203.582 64.5558 203.539 65.6464C203.448 67.9519 202.459 70.0457 200.198 70.778C199.301 71.0684 198.491 71.4957 197.581 71.7666C196.468 72.098 195.653 72.125 194.499 72.0595C193.777 72.0188 192.932 71.863 192.681 72.6277C192.555 73.0101 192.601 74.4984 192.772 74.8379C193.066 75.4194 193.897 75.3423 194.398 75.8451C195.301 76.7519 195.045 77.5248 196.57 77.5459C201.508 77.6149 206.431 77.2335 211.369 77.5911C213.804 77.7675 216.187 78.1884 218.632 78.3122C221.323 78.4482 224.021 78.4937 226.71 78.6571C229.248 78.8113 231.731 79.1438 234.283 79.0123C236.666 78.8895 238.955 78.726 241.328 78.4628C242.14 78.3727 243.397 78.5021 243.971 77.8813C244.289 77.5372 244.362 76.947 244.68 76.5681C244.973 76.2182 245.37 75.965 245.73 75.6919C246.602 75.0299 247.425 74.4345 248.575 74.4564C249.584 74.4757 250.388 75.2039 251.21 75.7395C252.163 76.3613 252.558 76.6471 253.689 76.406C254.816 76.1659 255.85 75.7207 256.95 75.3933C259.269 74.7028 261.443 73.7093 263.556 72.5313C264.597 71.9509 265.331 71.5609 266.529 71.9103C267.758 72.2683 268.108 72.6209 268.123 73.8971C268.127 74.3022 267.973 75.0223 268.438 75.2562C268.776 75.426 269.52 74.9523 269.807 74.8277C271.075 74.2776 272.32 73.7046 273.645 73.3029C274.855 72.9362 276.079 72.6108 277.294 72.2607C278.31 71.9676 279.665 71.5432 280.677 72.0888C283.234 73.4667 279.471 76.9679 278.494 78.1327C279.713 77.8406 282.328 78.0073 282.969 79.3152C283.728 80.8631 282.207 82.3981 281.349 83.5233C282.551 84.0707 284.978 83.5999 285.316 85.3234C285.601 86.7702 284.096 88.2276 283.115 89.0739C280.576 91.2646 276.638 92.7986 273.285 92.8273C272.434 92.8347 271.605 92.6689 270.759 92.6285C270.139 92.5992 269.581 92.8133 268.979 92.8141C268.131 92.8152 267.379 92.6486 266.504 92.7682C265.496 92.906 264.496 93.0753 263.484 93.1894C262.544 93.295 261.604 93.3914 260.661 93.4648C260.04 93.5136 259.103 93.3763 258.526 93.5849C257.779 93.8548 257.996 94.1247 257.936 94.8432C257.861 95.7254 257.414 96.5229 256.764 97.1113C254.403 99.2486 250.381 98.7355 249.194 95.5982C248.905 94.835 249.289 94.4363 249.18 93.7484C249.071 93.0563 248.427 93.0798 247.796 93.033C245.877 92.891 243.934 92.8778 242.006 92.7449C238.276 92.488 234.434 91.9646 230.705 92.0536C226.814 92.1463 222.898 91.9121 219.01 91.7008C217.197 91.6023 215.317 90.9662 213.532 91.1035C211.636 91.249 209.622 90.8405 207.716 90.6425C203.454 90.1994 198.698 90.071 194.76 88.3005C195.071 92.5693 195.588 96.9032 192.124 100.087C190.673 101.421 188.849 102.949 186.946 103.518C184.493 104.251 182.141 104.859 179.645 105.403C175.003 106.415 170.391 108.835 166.203 111.01C164.233 112.033 161.921 112.432 159.786 113.005C158.769 113.279 157.623 113.639 156.556 113.601C155.505 113.563 154.775 112.849 153.847 112.423C152.96 114.514 151.761 116.429 150.868 118.493C150.425 119.517 150.075 120.606 149.559 121.596C149.166 122.351 148.529 122.757 148.469 123.632C148.322 125.757 148.711 127.974 148.607 130.124C148.493 132.468 148.129 134.847 147.914 137.193C147.45 142.265 147.666 147.371 147.29 152.45C146.945 157.089 147.16 161.693 146.646 166.337C146.503 167.625 146.345 168.913 146.241 170.206C146.174 171.055 145.704 173.008 146.146 173.769C146.34 174.101 146.805 174.137 147.115 174.303C147.6 174.563 148.041 174.961 148.404 175.375C149.169 176.249 149.351 177.29 149.526 178.403C150.516 177.871 154.667 175.138 154.045 178.131C153.853 179.06 153.01 179.56 152.346 180.152C151.859 180.587 151.394 181.047 150.876 181.445C150.527 181.713 149.786 182.046 149.617 182.484C149.316 183.268 150.872 184.386 151.606 184.378C152.638 184.366 153.926 182.818 154.8 182.324C157.12 181.014 156.91 183.844 156.036 185.073C155.376 186.002 155.934 185.93 156.842 186.119C158.26 186.413 159.571 186.665 161.013 186.845C163.77 187.189 166.482 186.744 169.217 187.381C171.941 188.015 173.56 189.714 173.957 192.516C174.167 193.997 174.363 193.254 175.606 193.601C176.755 193.922 177.403 195.234 178.063 196.124C179.383 197.9 181.849 202.374 179.828 204.468C178.971 205.357 176.888 205.132 175.758 205.283C175.032 205.381 174.157 205.72 173.424 205.544C172.728 205.378 172.264 204.754 171.761 204.297C171.755 207.108 171.738 209.549 169.511 211.579C167.713 213.217 165.31 213.968 162.9 213.803C160.539 213.641 158.114 212.68 156.617 210.781C155.827 209.779 155.265 208.551 155.061 207.288C154.967 206.707 154.94 206.096 155.031 205.511C155.085 205.164 155.416 204.535 155.206 204.199C154.838 203.612 153.038 204.1 152.444 204.16C150.875 204.319 149.31 204.517 147.747 204.726C146.455 204.899 145.137 205.083 143.841 204.838C142.727 204.627 142.301 204.507 142.501 205.826C142.904 208.478 142.233 210.831 140.052 212.462C137.869 214.094 135.855 214.417 133.185 213.987C130.746 213.595 128.515 211.292 127.805 209.001C126.859 205.951 127.834 203.173 130.112 201.091C128.73 200.392 127.814 199.978 127.327 198.362C126.818 196.673 127.294 194.896 127.535 193.201C128.052 189.563 127.85 186.022 128.028 182.372C128.106 180.761 128.439 179.122 128.444 177.516C128.447 176.6 128.396 176.633 127.454 176.625C126.869 176.621 126.249 176.662 126.003 175.98C125.408 174.336 128.197 174.475 128.899 173.821C129.735 173.041 129.157 169.962 129.133 168.879C129.054 165.361 129.401 161.924 129.469 158.415C129.501 156.829 129.597 155.163 129.466 153.583C129.414 152.952 129.053 152.443 129.077 151.816C129.108 151.012 129.262 150.261 129.221 149.425C128.857 142.072 128.777 134.582 129.721 127.277C129.777 126.84 130.086 125.855 129.921 125.416C129.67 124.75 128.875 124.986 128.319 124.742C126.765 124.061 126.38 122.979 126.295 121.395C126.245 120.456 126.195 119.517 126.147 118.578C126.122 118.096 126.097 117.613 126.071 117.131C126.04 116.572 126.27 115.943 126.257 115.474C126.253 115.323 126.188 115.098 126.187 115.009C126.006 114.92 125.936 114.79 125.976 114.619C125.968 114.457 125.993 114.3 126.053 114.147C126.063 114.238 125.945 113.629 125.935 113.683C125.951 113.6 126.256 113.106 126.225 113.046C126.083 112.766 125.781 113.106 125.68 112.585C125.596 112.147 125.881 111.632 125.786 111.12C125.53 109.753 125.771 108.526 125.965 107.142Z" fill="black"/>
<path fill-rule="evenodd" clip-rule="evenodd" d="M50.2901 128.613C67.5632 128.653 84.8769 129.079 102.106 129.589C104.005 129.645 105.91 129.806 107.81 129.887C108.14 129.901 109.227 129.763 109.472 130.117C109.87 130.694 108.958 131.282 108.528 131.545C107.049 132.45 105.092 132.292 103.416 132.349C101.103 132.428 98.7896 132.437 96.4762 132.404C88.4378 132.293 80.396 131.682 72.3748 131.207C67.4338 130.914 62.4774 130.735 57.5295 130.589C55.0871 130.517 52.6429 130.477 50.2008 130.397C49.5414 130.375 48.3398 130.581 48.3398 129.714C48.3398 128.811 49.6576 128.662 50.2901 128.613Z" fill="black"/>
<path fill-rule="evenodd" clip-rule="evenodd" d="M70.9475 138.329C83.1703 138.856 95.4015 139.217 107.625 139.705C108.418 139.736 110.105 139.503 110.402 140.475C110.712 141.486 109.423 142.5 108.57 142.762C107.463 143.103 106.053 142.912 104.897 142.944C103.341 142.988 101.864 142.975 100.313 142.87C94.4067 142.47 88.51 141.951 82.602 141.55C79.2574 141.323 75.9152 141.054 72.5757 140.766C71.685 140.689 69.0401 140.928 68.4163 140.202C68.0321 139.755 68.4393 139.064 68.8191 138.719C69.4445 138.151 70.1635 138.28 70.9475 138.329Z" fill="black"/>
<path fill-rule="evenodd" clip-rule="evenodd" d="M107.012 151.691C103.04 151.905 99.0238 151.59 95.1193 150.934C94.5874 150.845 93.3577 150.835 93.0178 150.341C92.4985 149.586 93.4743 148.928 94.1307 148.862C95.9492 148.677 98.1117 149.311 99.9469 149.423C101.866 149.54 103.812 149.336 105.737 149.321C106.837 149.312 107.937 149.304 109.037 149.301C109.682 149.299 110.61 149.135 111.247 149.282C113.03 149.691 110.763 151.193 109.968 151.366C109.693 151.426 107.021 151.822 107.012 151.691Z" fill="black"/>
<path fill-rule="evenodd" clip-rule="evenodd" d="M193.691 56.4025C193.717 55.9365 193.596 54.7585 194.173 54.5376C195.298 54.107 195.224 56.8683 195.662 57.257C197.271 58.6822 196.837 53.1908 198.37 54.9618C199.616 56.401 198.615 59.8685 196.863 60.5153C195.572 60.9916 194.694 60.0749 194.192 59.0132C194.18 58.9887 193.483 56.3914 193.691 56.4025Z" fill="black"/>
<path fill-rule="evenodd" clip-rule="evenodd" d="M195.148 50.1153C195.924 49.9675 196.935 50.7741 196.46 51.5551C196.112 52.1264 193.755 53.012 193.117 53.0269C192.333 53.0455 192.4 52.4221 192.65 51.7874C193.041 50.7939 194.086 50.104 195.148 50.1153Z" fill="black"/>
<path fill-rule="evenodd" clip-rule="evenodd" d="M53.6133 37.6031C53.8519 36.6095 54.204 35.4322 55.3801 36.39C56.1699 37.0336 56.7475 38.6206 56.8268 39.6132C56.9216 40.8017 56.2692 41.4062 55.2147 40.7394C54.1445 40.063 53.7363 38.8157 53.6133 37.6031Z" fill="black"/>
<path fill-rule="evenodd" clip-rule="evenodd" d="M28.125 50.0986C27.7424 52.7556 25.3856 50.2828 25.4918 48.6619C25.5469 47.8183 26.03 47.1269 26.9475 47.6328C27.769 48.0862 28.0549 49.2779 28.125 50.0986Z" fill="black"/>
<path fill-rule="evenodd" clip-rule="evenodd" d="M162.305 205.397C162.48 204.737 162.518 203.38 163.281 203.09C164.41 202.662 164.9 204.538 164.938 205.293C164.979 206.112 164.693 207.851 163.521 207.706C162.56 207.588 162.496 206.114 162.305 205.397Z" fill="black"/>
<path fill-rule="evenodd" clip-rule="evenodd" d="M133.887 206.45C134.103 205.642 134.145 204.184 135.115 203.939C136.183 203.67 136.51 205.126 136.523 205.95C136.535 206.719 136.105 208.712 135.016 208.588C134.178 208.493 134.066 207.103 133.887 206.45Z" fill="black"/>
</svg>
