<svg width="187" height="516" viewBox="0 0 187 516" fill="none" xmlns="http://www.w3.org/2000/svg">
<rect width="187" height="516" fill="#0165BD"/>
<path d="M22.2486 19.4545H25.3239V28.9006C25.3239 29.9612 25.0705 30.8892 24.5639 31.6847C24.062 32.4801 23.3589 33.1004 22.4545 33.5455C21.5502 33.9858 20.4967 34.206 19.294 34.206C18.0866 34.206 17.0308 33.9858 16.1264 33.5455C15.2221 33.1004 14.5189 32.4801 14.017 31.6847C13.5152 30.8892 13.2642 29.9612 13.2642 28.9006V19.4545H16.3395V28.6378C16.3395 29.1918 16.4602 29.6842 16.7017 30.1151C16.9479 30.5459 17.2936 30.8845 17.7386 31.1307C18.1837 31.3769 18.7022 31.5 19.294 31.5C19.8906 31.5 20.4091 31.3769 20.8494 31.1307C21.2945 30.8845 21.6378 30.5459 21.8793 30.1151C22.1255 29.6842 22.2486 29.1918 22.2486 28.6378V19.4545ZM30.8228 27.6932V34H27.7972V23.0909H30.6808V25.0156H30.8086C31.0501 24.3812 31.4549 23.8793 32.0231 23.5099C32.5913 23.1359 33.2802 22.9489 34.0898 22.9489C34.8474 22.9489 35.5079 23.1146 36.0714 23.446C36.6348 23.7775 37.0728 24.2509 37.3853 24.8665C37.6978 25.4773 37.854 26.2064 37.854 27.054V34H34.8285V27.5938C34.8332 26.9261 34.6628 26.4053 34.3171 26.0312C33.9715 25.6525 33.4956 25.4631 32.8896 25.4631C32.4824 25.4631 32.1225 25.5507 31.81 25.7259C31.5022 25.901 31.2608 26.1567 31.0856 26.4929C30.9151 26.8243 30.8275 27.2244 30.8228 27.6932ZM43.2642 19.4545V34H40.2386V19.4545H43.2642ZM50.6168 34.2131C49.5136 34.2131 48.5595 33.9787 47.7546 33.5099C46.9544 33.0365 46.3365 32.3783 45.9009 31.5355C45.4653 30.688 45.2475 29.7055 45.2475 28.5881C45.2475 27.4612 45.4653 26.4763 45.9009 25.6335C46.3365 24.786 46.9544 24.1278 47.7546 23.6591C48.5595 23.1856 49.5136 22.9489 50.6168 22.9489C51.7201 22.9489 52.6718 23.1856 53.4719 23.6591C54.2769 24.1278 54.8971 24.786 55.3327 25.6335C55.7683 26.4763 55.9862 27.4612 55.9862 28.5881C55.9862 29.7055 55.7683 30.688 55.3327 31.5355C54.8971 32.3783 54.2769 33.0365 53.4719 33.5099C52.6718 33.9787 51.7201 34.2131 50.6168 34.2131ZM50.631 31.8693C51.1329 31.8693 51.552 31.7273 51.8881 31.4432C52.2243 31.1544 52.4776 30.7614 52.6481 30.2642C52.8233 29.767 52.9109 29.2012 52.9109 28.5668C52.9109 27.9323 52.8233 27.3665 52.6481 26.8693C52.4776 26.3722 52.2243 25.9792 51.8881 25.6903C51.552 25.4015 51.1329 25.2571 50.631 25.2571C50.1244 25.2571 49.6983 25.4015 49.3526 25.6903C49.0117 25.9792 48.7537 26.3722 48.5785 26.8693C48.408 27.3665 48.3228 27.9323 48.3228 28.5668C48.3228 29.2012 48.408 29.767 48.5785 30.2642C48.7537 30.7614 49.0117 31.1544 49.3526 31.4432C49.6983 31.7273 50.1244 31.8693 50.631 31.8693ZM62.8825 34.2131C61.765 34.2131 60.8039 33.9763 59.9989 33.5028C59.1987 33.0246 58.5832 32.3617 58.1523 31.5142C57.7262 30.6667 57.5131 29.6913 57.5131 28.5881C57.5131 27.4706 57.7286 26.4905 58.1594 25.6477C58.5951 24.8002 59.2129 24.1397 60.0131 23.6662C60.8133 23.188 61.765 22.9489 62.8683 22.9489C63.82 22.9489 64.6533 23.1217 65.3683 23.4673C66.0832 23.813 66.649 24.2983 67.0657 24.9233C67.4824 25.5483 67.712 26.2822 67.7546 27.125H64.8995C64.819 26.5805 64.6059 26.1425 64.2603 25.8111C63.9194 25.4749 63.4719 25.3068 62.918 25.3068C62.4492 25.3068 62.0397 25.4347 61.6893 25.6903C61.3436 25.9413 61.0737 26.3082 60.8796 26.7912C60.6855 27.2741 60.5884 27.8589 60.5884 28.5455C60.5884 29.2415 60.6831 29.8333 60.8725 30.321C61.0666 30.8087 61.3389 31.1804 61.6893 31.4361C62.0397 31.6918 62.4492 31.8196 62.918 31.8196C63.2636 31.8196 63.5737 31.7486 63.8484 31.6065C64.1277 31.4645 64.3574 31.2585 64.5373 30.9886C64.7219 30.714 64.8427 30.3849 64.8995 30.0014H67.7546C67.7073 30.8348 67.48 31.5687 67.0728 32.2031C66.6703 32.8329 66.114 33.3253 65.4038 33.6804C64.6935 34.0355 63.8531 34.2131 62.8825 34.2131ZM72.4332 30.8608L72.4403 27.2315H72.8807L76.375 23.0909H79.848L75.1534 28.5739H74.4361L72.4332 30.8608ZM69.6918 34V19.4545H72.7173V34H69.6918ZM76.5099 34L73.2997 29.2486L75.3168 27.1108L80.054 34H76.5099ZM87.8292 38.0909C87.4457 38.0909 87.0858 38.0601 86.7496 37.9986C86.4182 37.9418 86.1436 37.8684 85.9258 37.7784L86.6076 35.5199C86.9627 35.6288 87.2823 35.688 87.5664 35.6974C87.8552 35.7069 88.1038 35.6406 88.3121 35.4986C88.5252 35.3565 88.698 35.1151 88.8306 34.7741L89.0082 34.3125L85.0948 23.0909H88.2766L90.5352 31.1023H90.6488L92.9286 23.0909H96.1317L91.8917 35.179C91.6881 35.7661 91.4111 36.2775 91.0607 36.7131C90.7151 37.1534 90.2771 37.492 89.7468 37.7287C89.2165 37.9702 88.5773 38.0909 87.8292 38.0909ZM102.257 34.2131C101.154 34.2131 100.2 33.9787 99.3952 33.5099C98.5951 33.0365 97.9772 32.3783 97.5415 31.5355C97.1059 30.688 96.8881 29.7055 96.8881 28.5881C96.8881 27.4612 97.1059 26.4763 97.5415 25.6335C97.9772 24.786 98.5951 24.1278 99.3952 23.6591C100.2 23.1856 101.154 22.9489 102.257 22.9489C103.361 22.9489 104.312 23.1856 105.113 23.6591C105.917 24.1278 106.538 24.786 106.973 25.6335C107.409 26.4763 107.627 27.4612 107.627 28.5881C107.627 29.7055 107.409 30.688 106.973 31.5355C106.538 32.3783 105.917 33.0365 105.113 33.5099C104.312 33.9787 103.361 34.2131 102.257 34.2131ZM102.272 31.8693C102.774 31.8693 103.193 31.7273 103.529 31.4432C103.865 31.1544 104.118 30.7614 104.289 30.2642C104.464 29.767 104.551 29.2012 104.551 28.5668C104.551 27.9323 104.464 27.3665 104.289 26.8693C104.118 26.3722 103.865 25.9792 103.529 25.6903C103.193 25.4015 102.774 25.2571 102.272 25.2571C101.765 25.2571 101.339 25.4015 100.993 25.6903C100.652 25.9792 100.394 26.3722 100.219 26.8693C100.049 27.3665 99.9634 27.9323 99.9634 28.5668C99.9634 29.2012 100.049 29.767 100.219 30.2642C100.394 30.7614 100.652 31.1544 100.993 31.4432C101.339 31.7273 101.765 31.8693 102.272 31.8693ZM116.59 29.3551V23.0909H119.615V34H116.711V32.0185H116.597C116.351 32.6577 115.941 33.1714 115.368 33.5597C114.8 33.9479 114.106 34.142 113.287 34.142C112.558 34.142 111.917 33.9763 111.363 33.6449C110.809 33.3134 110.375 32.8423 110.063 32.2315C109.755 31.6207 109.599 30.8892 109.594 30.0369V23.0909H112.62V29.4972C112.624 30.1411 112.797 30.6501 113.138 31.0241C113.479 31.3982 113.936 31.5852 114.509 31.5852C114.873 31.5852 115.214 31.5024 115.532 31.3366C115.849 31.1662 116.105 30.9152 116.299 30.5838C116.498 30.2524 116.595 29.8428 116.59 29.3551ZM122.036 34V23.0909H124.969V24.9943H125.082C125.281 24.3172 125.615 23.8059 126.084 23.4602C126.553 23.1098 127.092 22.9347 127.703 22.9347C127.855 22.9347 128.018 22.9441 128.193 22.9631C128.368 22.982 128.522 23.008 128.655 23.0412V25.7259C128.513 25.6832 128.316 25.6454 128.065 25.6122C127.814 25.5791 127.585 25.5625 127.376 25.5625C126.931 25.5625 126.534 25.6596 126.183 25.8537C125.838 26.0431 125.563 26.3082 125.359 26.6491C125.161 26.9901 125.061 27.383 125.061 27.8281V34H122.036ZM19.0739 47.0909V49.3636H12.3409V47.0909H19.0739ZM13.8821 58V46.3026C13.8821 45.5118 14.036 44.8561 14.3438 44.3352C14.6562 43.8144 15.0824 43.4238 15.6222 43.1634C16.1619 42.9029 16.7751 42.7727 17.4616 42.7727C17.9257 42.7727 18.3494 42.8082 18.733 42.8793C19.1212 42.9503 19.41 43.0142 19.5994 43.071L19.0597 45.3438C18.9413 45.3059 18.7945 45.2704 18.6193 45.2372C18.4489 45.2041 18.2737 45.1875 18.0938 45.1875C17.6487 45.1875 17.3385 45.2917 17.1634 45.5C16.9882 45.7036 16.9006 45.9901 16.9006 46.3594V58H13.8821ZM27.918 53.3551V47.0909H30.9435V58H28.0387V56.0185H27.9251C27.6789 56.6577 27.2693 57.1714 26.6964 57.5597C26.1282 57.9479 25.4345 58.142 24.6154 58.142C23.8862 58.142 23.2447 57.9763 22.6907 57.6449C22.1367 57.3134 21.7035 56.8423 21.391 56.2315C21.0832 55.6207 20.927 54.8892 20.9222 54.0369V47.0909H23.9478V53.4972C23.9525 54.1411 24.1254 54.6501 24.4663 55.0241C24.8072 55.3982 25.2641 55.5852 25.837 55.5852C26.2016 55.5852 26.5425 55.5024 26.8597 55.3366C27.177 55.1662 27.4326 54.9152 27.6268 54.5838C27.8256 54.2524 27.9227 53.8428 27.918 53.3551ZM39.1662 47.0909V49.3636H32.5966V47.0909H39.1662ZM34.0881 44.4773H37.1136V54.6477C37.1136 54.9271 37.1563 55.1449 37.2415 55.3011C37.3267 55.4527 37.4451 55.5592 37.5966 55.6207C37.7528 55.6823 37.9328 55.7131 38.1364 55.7131C38.2784 55.7131 38.4205 55.7012 38.5625 55.6776C38.7045 55.6491 38.8134 55.6278 38.8892 55.6136L39.3651 57.8651C39.2135 57.9124 39.0005 57.9669 38.7259 58.0284C38.4512 58.0947 38.1174 58.1349 37.7244 58.1491C36.9953 58.1776 36.3561 58.0805 35.8068 57.858C35.2623 57.6354 34.8385 57.2898 34.5355 56.821C34.2325 56.3523 34.0833 55.7604 34.0881 55.0455V44.4773ZM48.1328 53.3551V47.0909H51.1584V58H48.2536V56.0185H48.1399C47.8937 56.6577 47.4841 57.1714 46.9112 57.5597C46.343 57.9479 45.6494 58.142 44.8303 58.142C44.1011 58.142 43.4595 57.9763 42.9055 57.6449C42.3516 57.3134 41.9183 56.8423 41.6058 56.2315C41.2981 55.6207 41.1418 54.8892 41.1371 54.0369V47.0909H44.1626V53.4972C44.1674 54.1411 44.3402 54.6501 44.6811 55.0241C45.022 55.3982 45.4789 55.5852 46.0518 55.5852C46.4164 55.5852 46.7573 55.5024 47.0746 55.3366C47.3918 55.1662 47.6475 54.9152 47.8416 54.5838C48.0405 54.2524 48.1375 53.8428 48.1328 53.3551ZM53.5785 58V47.0909H56.5117V48.9943H56.6254C56.8242 48.3172 57.158 47.8059 57.6268 47.4602C58.0955 47.1098 58.6353 46.9347 59.2461 46.9347C59.3976 46.9347 59.561 46.9441 59.7362 46.9631C59.9113 46.982 60.0652 47.008 60.1978 47.0412V49.7259C60.0558 49.6832 59.8593 49.6454 59.6083 49.6122C59.3574 49.5791 59.1277 49.5625 58.9194 49.5625C58.4743 49.5625 58.0766 49.6596 57.7262 49.8537C57.3806 50.0431 57.1059 50.3082 56.9023 50.6491C56.7035 50.9901 56.604 51.383 56.604 51.8281V58H53.5785ZM66.2259 58.2131C65.1037 58.2131 64.1378 57.9858 63.3281 57.5312C62.5232 57.072 61.9029 56.4233 61.4673 55.5852C61.0317 54.7424 60.8139 53.7457 60.8139 52.5952C60.8139 51.473 61.0317 50.4882 61.4673 49.6406C61.9029 48.7931 62.5161 48.1326 63.3068 47.6591C64.1023 47.1856 65.035 46.9489 66.1051 46.9489C66.8248 46.9489 67.4948 47.0649 68.1151 47.2969C68.7401 47.5241 69.2846 47.8674 69.7486 48.3267C70.2173 48.786 70.5819 49.3636 70.8423 50.0597C71.1027 50.7509 71.233 51.5606 71.233 52.4886V53.3196H62.0213V51.4446H68.3849C68.3849 51.009 68.2902 50.6231 68.1009 50.2869C67.9115 49.9508 67.6487 49.688 67.3125 49.4986C66.9811 49.3045 66.5952 49.2074 66.1548 49.2074C65.6955 49.2074 65.2884 49.3139 64.9332 49.527C64.5829 49.7353 64.3082 50.017 64.1094 50.3722C63.9105 50.7225 63.8087 51.1132 63.804 51.544V53.3267C63.804 53.8665 63.9034 54.3329 64.1023 54.7259C64.3059 55.1188 64.5923 55.4219 64.9616 55.6349C65.331 55.848 65.7689 55.9545 66.2756 55.9545C66.6117 55.9545 66.9195 55.9072 67.1989 55.8125C67.4782 55.7178 67.7173 55.5758 67.9162 55.3864C68.1151 55.197 68.2666 54.965 68.3707 54.6903L71.169 54.875C71.027 55.5473 70.7358 56.1345 70.2955 56.6364C69.8598 57.1335 69.2964 57.5218 68.6051 57.8011C67.9186 58.0758 67.1255 58.2131 66.2259 58.2131ZM80.9471 58.206C80.2511 58.206 79.6308 58.0852 79.0863 57.8438C78.5418 57.5975 78.1109 57.2353 77.7937 56.7571C77.4812 56.2741 77.3249 55.6728 77.3249 54.9531C77.3249 54.3471 77.4362 53.8381 77.6587 53.4261C77.8813 53.0142 78.1843 52.6828 78.5678 52.4318C78.9513 52.1809 79.387 51.9915 79.8746 51.8636C80.3671 51.7358 80.8832 51.6458 81.4229 51.5938C82.0574 51.5275 82.5688 51.4659 82.957 51.4091C83.3453 51.3475 83.627 51.2576 83.8022 51.1392C83.9774 51.0208 84.065 50.8456 84.065 50.6136V50.571C84.065 50.1212 83.9229 49.7732 83.6388 49.527C83.3595 49.2808 82.9618 49.1577 82.4457 49.1577C81.9012 49.1577 81.4679 49.2784 81.146 49.5199C80.824 49.7566 80.6109 50.0549 80.5067 50.4148L77.7085 50.1875C77.8505 49.5246 78.1299 48.9517 78.5465 48.4688C78.9632 47.9811 79.5006 47.607 80.1587 47.3466C80.8216 47.0814 81.5887 46.9489 82.4599 46.9489C83.0659 46.9489 83.646 47.0199 84.1999 47.1619C84.7586 47.304 85.2534 47.5241 85.6843 47.8224C86.1199 48.1207 86.4632 48.5043 86.7141 48.973C86.9651 49.437 87.0906 49.9934 87.0906 50.642V58H84.2212V56.4872H84.136C83.9608 56.8281 83.7264 57.1288 83.4329 57.3892C83.1393 57.6449 82.7866 57.8461 82.3746 57.9929C81.9627 58.1349 81.4869 58.206 80.9471 58.206ZM81.8136 56.1179C82.2586 56.1179 82.6516 56.0303 82.9925 55.8551C83.3335 55.6752 83.601 55.4337 83.7951 55.1307C83.9892 54.8277 84.0863 54.4844 84.0863 54.1009V52.9432C83.9916 53.0047 83.8614 53.0616 83.6957 53.1136C83.5347 53.161 83.3524 53.206 83.1488 53.2486C82.9452 53.2865 82.7416 53.322 82.538 53.3551C82.3344 53.3835 82.1497 53.4096 81.984 53.4332C81.6289 53.4853 81.3188 53.5682 81.0536 53.6818C80.7885 53.7955 80.5825 53.9493 80.4357 54.1435C80.2889 54.3329 80.2156 54.5696 80.2156 54.8537C80.2156 55.2656 80.3647 55.5805 80.663 55.7983C80.966 56.0114 81.3496 56.1179 81.8136 56.1179ZM95.2404 47.0909V49.3636H88.6708V47.0909H95.2404ZM90.1623 44.4773H93.1879V54.6477C93.1879 54.9271 93.2305 55.1449 93.3157 55.3011C93.4009 55.4527 93.5193 55.5592 93.6708 55.6207C93.8271 55.6823 94.007 55.7131 94.2106 55.7131C94.3526 55.7131 94.4947 55.7012 94.6367 55.6776C94.7788 55.6491 94.8877 55.6278 94.9634 55.6136L95.4393 57.8651C95.2878 57.9124 95.0747 57.9669 94.8001 58.0284C94.5254 58.0947 94.1916 58.1349 93.7987 58.1491C93.0695 58.1776 92.4303 58.0805 91.881 57.858C91.3365 57.6354 90.9128 57.2898 90.6097 56.821C90.3067 56.3523 90.1576 55.7604 90.1623 55.0455V44.4773Z" fill="white"/>
<path d="M76.6164 220V282H92.5068V220H166V296H152.096V234H136.205V296H122.301V234H106.411V296H62.7123V234H48.8082V296H34.9041V234H21V220H76.6164Z" fill="white"/>
<path d="M89.8807 509V501.727H92.3381C92.9086 501.727 93.375 501.83 93.7372 502.036C94.1018 502.24 94.3717 502.516 94.5469 502.864C94.7221 503.212 94.8097 503.6 94.8097 504.028C94.8097 504.457 94.7221 504.846 94.5469 505.197C94.3741 505.547 94.1065 505.826 93.7443 506.035C93.3821 506.241 92.9181 506.344 92.3523 506.344H90.5909V505.562H92.3239C92.7145 505.562 93.0282 505.495 93.2649 505.36C93.5017 505.225 93.6733 505.043 93.7798 504.813C93.8887 504.581 93.9432 504.32 93.9432 504.028C93.9432 503.737 93.8887 503.477 93.7798 503.247C93.6733 503.018 93.5005 502.838 93.2614 502.707C93.0223 502.575 92.705 502.509 92.3097 502.509H90.7614V509H89.8807ZM97.7198 509.128C97.3742 509.128 97.0605 509.063 96.7788 508.933C96.497 508.8 96.2733 508.609 96.1076 508.361C95.9419 508.11 95.859 507.807 95.859 507.452C95.859 507.139 95.9206 506.886 96.0437 506.692C96.1668 506.495 96.3313 506.341 96.5373 506.23C96.7433 506.119 96.9705 506.036 97.2191 505.982C97.4701 505.925 97.7222 505.88 97.9755 505.847C98.3069 505.804 98.5756 505.772 98.7816 505.751C98.9899 505.727 99.1415 505.688 99.2362 505.634C99.3332 505.579 99.3817 505.484 99.3817 505.349V505.321C99.3817 504.971 99.2859 504.698 99.0941 504.504C98.9047 504.31 98.6171 504.213 98.2312 504.213C97.8311 504.213 97.5174 504.301 97.2901 504.476C97.0629 504.651 96.9031 504.838 96.8107 505.037L96.0153 504.753C96.1573 504.421 96.3467 504.163 96.5835 503.979C96.8226 503.792 97.083 503.661 97.3647 503.588C97.6488 503.512 97.9281 503.474 98.2028 503.474C98.378 503.474 98.5792 503.496 98.8065 503.538C99.0361 503.579 99.2575 503.663 99.4705 503.79C99.686 503.918 99.8647 504.111 100.007 504.369C100.149 504.627 100.22 504.973 100.22 505.406V509H99.3817V508.261H99.3391C99.2823 508.38 99.1876 508.506 99.055 508.641C98.9225 508.776 98.7461 508.891 98.5259 508.986C98.3058 509.08 98.0371 509.128 97.7198 509.128ZM97.8477 508.375C98.1791 508.375 98.4585 508.31 98.6857 508.18C98.9154 508.049 99.0882 507.881 99.2042 507.675C99.3226 507.469 99.3817 507.253 99.3817 507.026V506.259C99.3462 506.301 99.2681 506.34 99.1474 506.376C99.029 506.409 98.8917 506.438 98.7354 506.464C98.5816 506.488 98.4312 506.509 98.2844 506.528C98.14 506.545 98.0228 506.559 97.9329 506.571C97.7151 506.599 97.5115 506.646 97.3221 506.71C97.1351 506.771 96.9835 506.865 96.8675 506.99C96.7539 507.113 96.6971 507.281 96.6971 507.494C96.6971 507.786 96.8048 508.006 97.0202 508.155C97.238 508.302 97.5138 508.375 97.8477 508.375ZM101.749 509V503.545H102.588V509H101.749ZM102.176 502.636C102.012 502.636 101.871 502.581 101.753 502.469C101.637 502.358 101.579 502.224 101.579 502.068C101.579 501.912 101.637 501.778 101.753 501.667C101.871 501.556 102.012 501.5 102.176 501.5C102.339 501.5 102.479 501.556 102.595 501.667C102.713 501.778 102.772 501.912 102.772 502.068C102.772 502.224 102.713 502.358 102.595 502.469C102.479 502.581 102.339 502.636 102.176 502.636ZM106.182 509.114C105.728 509.114 105.326 508.999 104.978 508.769C104.63 508.537 104.358 508.21 104.162 507.789C103.965 507.365 103.867 506.865 103.867 506.287C103.867 505.714 103.965 505.217 104.162 504.795C104.358 504.374 104.632 504.049 104.982 503.819C105.332 503.589 105.737 503.474 106.196 503.474C106.551 503.474 106.832 503.534 107.038 503.652C107.246 503.768 107.405 503.901 107.514 504.05C107.625 504.196 107.712 504.317 107.773 504.412H107.844V501.727H108.682V509H107.873V508.162H107.773C107.712 508.261 107.624 508.387 107.51 508.538C107.397 508.687 107.234 508.821 107.024 508.94C106.813 509.056 106.533 509.114 106.182 509.114ZM106.296 508.361C106.632 508.361 106.916 508.273 107.148 508.098C107.38 507.92 107.556 507.675 107.677 507.363C107.798 507.048 107.858 506.685 107.858 506.273C107.858 505.866 107.799 505.509 107.681 505.204C107.562 504.896 107.387 504.657 107.155 504.487C106.923 504.314 106.637 504.227 106.296 504.227C105.941 504.227 105.645 504.318 105.408 504.501C105.174 504.681 104.997 504.926 104.879 505.236C104.763 505.544 104.705 505.889 104.705 506.273C104.705 506.661 104.764 507.014 104.882 507.331C105.003 507.646 105.181 507.897 105.415 508.084C105.652 508.268 105.945 508.361 106.296 508.361ZM114.751 509.128C114.405 509.128 114.092 509.063 113.81 508.933C113.528 508.8 113.305 508.609 113.139 508.361C112.973 508.11 112.89 507.807 112.89 507.452C112.89 507.139 112.952 506.886 113.075 506.692C113.198 506.495 113.363 506.341 113.569 506.23C113.775 506.119 114.002 506.036 114.25 505.982C114.501 505.925 114.753 505.88 115.007 505.847C115.338 505.804 115.607 505.772 115.813 505.751C116.021 505.727 116.173 505.688 116.267 505.634C116.364 505.579 116.413 505.484 116.413 505.349V505.321C116.413 504.971 116.317 504.698 116.125 504.504C115.936 504.31 115.648 504.213 115.262 504.213C114.862 504.213 114.549 504.301 114.321 504.476C114.094 504.651 113.934 504.838 113.842 505.037L113.047 504.753C113.189 504.421 113.378 504.163 113.615 503.979C113.854 503.792 114.114 503.661 114.396 503.588C114.68 503.512 114.959 503.474 115.234 503.474C115.409 503.474 115.61 503.496 115.838 503.538C116.067 503.579 116.289 503.663 116.502 503.79C116.717 503.918 116.896 504.111 117.038 504.369C117.18 504.627 117.251 504.973 117.251 505.406V509H116.413V508.261H116.37C116.314 508.38 116.219 508.506 116.086 508.641C115.954 508.776 115.777 508.891 115.557 508.986C115.337 509.08 115.068 509.128 114.751 509.128ZM114.879 508.375C115.21 508.375 115.49 508.31 115.717 508.18C115.947 508.049 116.119 507.881 116.235 507.675C116.354 507.469 116.413 507.253 116.413 507.026V506.259C116.377 506.301 116.299 506.34 116.179 506.376C116.06 506.409 115.923 506.438 115.767 506.464C115.613 506.488 115.462 506.509 115.316 506.528C115.171 506.545 115.054 506.559 114.964 506.571C114.746 506.599 114.543 506.646 114.353 506.71C114.166 506.771 114.015 506.865 113.899 506.99C113.785 507.113 113.728 507.281 113.728 507.494C113.728 507.786 113.836 508.006 114.051 508.155C114.269 508.302 114.545 508.375 114.879 508.375ZM120.84 509.114C120.386 509.114 119.985 508.999 119.637 508.769C119.289 508.537 119.016 508.21 118.82 507.789C118.623 507.365 118.525 506.865 118.525 506.287C118.525 505.714 118.623 505.217 118.82 504.795C119.016 504.374 119.29 504.049 119.64 503.819C119.99 503.589 120.395 503.474 120.855 503.474C121.21 503.474 121.49 503.534 121.696 503.652C121.905 503.768 122.063 503.901 122.172 504.05C122.283 504.196 122.37 504.317 122.431 504.412H122.502V501.727H123.34V509H122.531V508.162H122.431C122.37 508.261 122.282 508.387 122.169 508.538C122.055 508.687 121.893 508.821 121.682 508.94C121.471 509.056 121.191 509.114 120.84 509.114ZM120.954 508.361C121.29 508.361 121.574 508.273 121.806 508.098C122.038 507.92 122.215 507.675 122.335 507.363C122.456 507.048 122.517 506.685 122.517 506.273C122.517 505.866 122.457 505.509 122.339 505.204C122.221 504.896 122.045 504.657 121.813 504.487C121.581 504.314 121.295 504.227 120.954 504.227C120.599 504.227 120.303 504.318 120.066 504.501C119.832 504.681 119.655 504.926 119.537 505.236C119.421 505.544 119.363 505.889 119.363 506.273C119.363 506.661 119.422 507.014 119.541 507.331C119.661 507.646 119.839 507.897 120.073 508.084C120.31 508.268 120.604 508.361 120.954 508.361ZM129.452 503.545L127.435 509H126.583L124.566 503.545H125.475L126.98 507.892H127.037L128.543 503.545H129.452ZM132.65 509.114C132.124 509.114 131.671 508.998 131.29 508.766C130.911 508.531 130.618 508.205 130.412 507.786C130.209 507.364 130.107 506.874 130.107 506.315C130.107 505.757 130.209 505.264 130.412 504.838C130.618 504.41 130.905 504.076 131.272 503.837C131.641 503.595 132.072 503.474 132.564 503.474C132.849 503.474 133.129 503.522 133.406 503.616C133.683 503.711 133.935 503.865 134.162 504.078C134.39 504.289 134.571 504.568 134.706 504.916C134.841 505.264 134.908 505.693 134.908 506.202V506.557H130.704V505.832H134.056C134.056 505.525 133.994 505.25 133.871 505.009C133.751 504.767 133.578 504.576 133.353 504.437C133.13 504.297 132.867 504.227 132.564 504.227C132.231 504.227 131.942 504.31 131.698 504.476C131.456 504.639 131.271 504.852 131.14 505.115C131.01 505.378 130.945 505.66 130.945 505.96V506.443C130.945 506.855 131.016 507.204 131.158 507.491C131.303 507.775 131.503 507.991 131.758 508.141C132.014 508.287 132.311 508.361 132.65 508.361C132.87 508.361 133.069 508.33 133.246 508.268C133.426 508.205 133.581 508.11 133.711 507.984C133.842 507.857 133.942 507.698 134.013 507.509L134.823 507.736C134.738 508.01 134.595 508.252 134.393 508.46C134.192 508.666 133.943 508.827 133.648 508.943C133.352 509.057 133.019 509.114 132.65 509.114ZM136.183 509V503.545H136.993V504.369H137.05C137.149 504.099 137.329 503.88 137.589 503.712C137.85 503.544 138.143 503.46 138.47 503.46C138.532 503.46 138.608 503.461 138.701 503.464C138.793 503.466 138.863 503.47 138.91 503.474V504.327C138.882 504.32 138.817 504.309 138.715 504.295C138.616 504.278 138.51 504.27 138.399 504.27C138.134 504.27 137.897 504.326 137.689 504.437C137.483 504.546 137.319 504.697 137.199 504.891C137.08 505.083 137.021 505.302 137.021 505.548V509H136.183ZM142.618 503.545V504.256H139.791V503.545H142.618ZM140.615 502.239H141.453V507.438C141.453 507.674 141.487 507.852 141.556 507.97C141.627 508.086 141.717 508.164 141.826 508.205C141.937 508.242 142.054 508.261 142.177 508.261C142.27 508.261 142.345 508.257 142.405 508.247C142.464 508.235 142.511 508.226 142.547 508.219L142.717 508.972C142.66 508.993 142.581 509.014 142.479 509.036C142.377 509.059 142.248 509.071 142.092 509.071C141.855 509.071 141.623 509.02 141.396 508.918C141.171 508.817 140.984 508.661 140.835 508.453C140.688 508.245 140.615 507.982 140.615 507.665V502.239ZM143.878 509V503.545H144.716V509H143.878ZM144.305 502.636C144.141 502.636 144 502.581 143.882 502.469C143.766 502.358 143.708 502.224 143.708 502.068C143.708 501.912 143.766 501.778 143.882 501.667C144 501.556 144.141 501.5 144.305 501.5C144.468 501.5 144.608 501.556 144.724 501.667C144.842 501.778 144.901 501.912 144.901 502.068C144.901 502.224 144.842 502.358 144.724 502.469C144.608 502.581 144.468 502.636 144.305 502.636ZM150.115 504.767L149.362 504.98C149.315 504.855 149.245 504.733 149.153 504.614C149.063 504.494 148.94 504.394 148.783 504.316C148.627 504.238 148.427 504.199 148.183 504.199C147.849 504.199 147.571 504.276 147.349 504.43C147.129 504.581 147.018 504.774 147.018 505.009C147.018 505.217 147.094 505.381 147.246 505.502C147.397 505.623 147.634 505.723 147.956 505.804L148.766 506.003C149.253 506.121 149.617 506.302 149.856 506.546C150.095 506.788 150.214 507.099 150.214 507.48C150.214 507.793 150.125 508.072 149.945 508.318C149.767 508.564 149.518 508.759 149.199 508.901C148.879 509.043 148.508 509.114 148.084 509.114C147.527 509.114 147.067 508.993 146.702 508.751C146.338 508.51 146.107 508.157 146.01 507.693L146.805 507.494C146.881 507.788 147.024 508.008 147.235 508.155C147.448 508.302 147.726 508.375 148.07 508.375C148.46 508.375 148.77 508.292 149 508.126C149.232 507.958 149.348 507.757 149.348 507.523C149.348 507.333 149.282 507.175 149.149 507.047C149.017 506.917 148.813 506.82 148.538 506.756L147.629 506.543C147.13 506.424 146.763 506.241 146.528 505.992C146.296 505.741 146.18 505.428 146.18 505.051C146.18 504.743 146.267 504.471 146.44 504.234C146.615 503.998 146.853 503.812 147.153 503.677C147.456 503.542 147.8 503.474 148.183 503.474C148.723 503.474 149.147 503.593 149.455 503.83C149.765 504.066 149.985 504.379 150.115 504.767ZM153.763 509.114C153.237 509.114 152.784 508.998 152.403 508.766C152.024 508.531 151.732 508.205 151.526 507.786C151.322 507.364 151.22 506.874 151.22 506.315C151.22 505.757 151.322 505.264 151.526 504.838C151.732 504.41 152.018 504.076 152.385 503.837C152.754 503.595 153.185 503.474 153.678 503.474C153.962 503.474 154.242 503.522 154.519 503.616C154.796 503.711 155.048 503.865 155.276 504.078C155.503 504.289 155.684 504.568 155.819 504.916C155.954 505.264 156.021 505.693 156.021 506.202V506.557H151.817V505.832H155.169C155.169 505.525 155.108 505.25 154.985 505.009C154.864 504.767 154.691 504.576 154.466 504.437C154.244 504.297 153.981 504.227 153.678 504.227C153.344 504.227 153.055 504.31 152.811 504.476C152.57 504.639 152.384 504.852 152.254 505.115C152.124 505.378 152.058 505.66 152.058 505.96V506.443C152.058 506.855 152.129 507.204 152.271 507.491C152.416 507.775 152.616 507.991 152.872 508.141C153.127 508.287 153.424 508.361 153.763 508.361C153.983 508.361 154.182 508.33 154.36 508.268C154.539 508.205 154.695 508.11 154.825 507.984C154.955 507.857 155.056 507.698 155.127 507.509L155.936 507.736C155.851 508.01 155.708 508.252 155.507 508.46C155.305 508.666 155.057 508.827 154.761 508.943C154.465 509.057 154.132 509.114 153.763 509.114ZM157.296 509V503.545H158.106V504.398H158.177C158.291 504.107 158.474 503.88 158.727 503.719C158.981 503.556 159.285 503.474 159.64 503.474C160 503.474 160.299 503.556 160.539 503.719C160.78 503.88 160.968 504.107 161.103 504.398H161.16C161.3 504.116 161.509 503.892 161.789 503.727C162.068 503.558 162.403 503.474 162.794 503.474C163.281 503.474 163.68 503.627 163.99 503.933C164.3 504.236 164.455 504.708 164.455 505.349V509H163.617V505.349C163.617 504.947 163.507 504.659 163.287 504.487C163.067 504.314 162.808 504.227 162.509 504.227C162.126 504.227 161.829 504.343 161.618 504.575C161.407 504.805 161.302 505.096 161.302 505.449V509H160.45V505.264C160.45 504.954 160.349 504.704 160.148 504.515C159.947 504.323 159.687 504.227 159.37 504.227C159.152 504.227 158.949 504.285 158.759 504.401C158.572 504.517 158.421 504.678 158.305 504.884C158.191 505.088 158.134 505.323 158.134 505.591V509H157.296ZM168.275 509.114C167.749 509.114 167.296 508.998 166.915 508.766C166.536 508.531 166.243 508.205 166.037 507.786C165.834 507.364 165.732 506.874 165.732 506.315C165.732 505.757 165.834 505.264 166.037 504.838C166.243 504.41 166.53 504.076 166.897 503.837C167.266 503.595 167.697 503.474 168.189 503.474C168.474 503.474 168.754 503.522 169.031 503.616C169.308 503.711 169.56 503.865 169.787 504.078C170.015 504.289 170.196 504.568 170.331 504.916C170.466 505.264 170.533 505.693 170.533 506.202V506.557H166.329V505.832H169.681C169.681 505.525 169.619 505.25 169.496 505.009C169.376 504.767 169.203 504.576 168.978 504.437C168.755 504.297 168.492 504.227 168.189 504.227C167.856 504.227 167.567 504.31 167.323 504.476C167.081 504.639 166.896 504.852 166.765 505.115C166.635 505.378 166.57 505.66 166.57 505.96V506.443C166.57 506.855 166.641 507.204 166.783 507.491C166.928 507.775 167.128 507.991 167.383 508.141C167.639 508.287 167.936 508.361 168.275 508.361C168.495 508.361 168.694 508.33 168.871 508.268C169.051 508.205 169.206 508.11 169.336 507.984C169.467 507.857 169.567 507.698 169.638 507.509L170.448 507.736C170.363 508.01 170.22 508.252 170.018 508.46C169.817 508.666 169.568 508.827 169.273 508.943C168.977 509.057 168.644 509.114 168.275 509.114ZM172.646 505.719V509H171.808V503.545H172.618V504.398H172.689C172.817 504.121 173.011 503.898 173.271 503.73C173.532 503.56 173.868 503.474 174.28 503.474C174.649 503.474 174.972 503.55 175.249 503.702C175.526 503.851 175.742 504.078 175.895 504.384C176.049 504.687 176.126 505.07 176.126 505.534V509H175.288V505.591C175.288 505.162 175.177 504.829 174.954 504.589C174.732 504.348 174.426 504.227 174.038 504.227C173.771 504.227 173.532 504.285 173.321 504.401C173.113 504.517 172.948 504.687 172.827 504.909C172.706 505.132 172.646 505.402 172.646 505.719ZM180.03 503.545V504.256H177.203V503.545H180.03ZM178.027 502.239H178.865V507.438C178.865 507.674 178.899 507.852 178.968 507.97C179.039 508.086 179.129 508.164 179.238 508.205C179.349 508.242 179.466 508.261 179.589 508.261C179.682 508.261 179.758 508.257 179.817 508.247C179.876 508.235 179.923 508.226 179.959 508.219L180.129 508.972C180.072 508.993 179.993 509.014 179.891 509.036C179.79 509.059 179.661 509.071 179.504 509.071C179.268 509.071 179.036 509.02 178.808 508.918C178.583 508.817 178.396 508.661 178.247 508.453C178.1 508.245 178.027 507.982 178.027 507.665V502.239Z" fill="white"/>
</svg>
