<svg width="1024" height="1292" viewBox="0 0 1024 1292" fill="none" xmlns="http://www.w3.org/2000/svg">
<path fill-rule="evenodd" clip-rule="evenodd" d="M512 1024C794.77 1024 1024 794.77 1024 512C1024 229.23 794.77 0 512 0C229.23 0 0 229.23 0 512C0 794.77 229.23 1024 512 1024ZM512 890.88C721.978 890.88 892.198 718.957 892.198 506.88C892.198 294.803 721.978 122.88 512 122.88C302.022 122.88 131.802 294.803 131.802 506.88C131.802 718.957 302.022 890.88 512 890.88Z" fill="#059467"/>
<path d="M246 471H225C219.477 471 215 475.477 215 481V543C215 548.523 219.477 553 225 553H246V471Z" fill="#059467"/>
<path d="M256 409.5C256 403.977 260.477 399.5 266 399.5H308C313.523 399.5 318 403.977 318 409.5V614.5C318 620.023 313.523 624.5 308 624.5H266C260.477 624.5 256 620.023 256 614.5V409.5Z" fill="#059467"/>
<path d="M328 353C328 347.477 332.477 343 338 343H390C395.523 343 400 347.477 400 353V671C400 676.523 395.523 681 390 681H338C332.477 681 328 676.523 328 671V353Z" fill="#059467"/>
<path d="M420 476C420 473.239 422.239 471 425 471H600C602.761 471 605 473.239 605 476V548C605 550.761 602.761 553 600 553H425C422.239 553 420 550.761 420 548V476Z" fill="#059467"/>
<path d="M625 353C625 347.477 629.477 343 635 343H687C692.523 343 697 347.477 697 353V671C697 676.523 692.523 681 687 681H635C629.477 681 625 676.523 625 671V353Z" fill="#059467"/>
<path d="M707 409.5C707 403.977 711.477 399.5 717 399.5H759C764.523 399.5 769 403.977 769 409.5V614.5C769 620.023 764.523 624.5 759 624.5H717C711.477 624.5 707 620.023 707 614.5V409.5Z" fill="#059467"/>
<path d="M779 471H800C805.523 471 810 475.477 810 481V543C810 548.523 805.523 553 800 553H779V471Z" fill="#059467"/>
<path fill-rule="evenodd" clip-rule="evenodd" d="M186.692 964.028C269.214 1075.79 379.387 1194.23 511.523 1291.02L512 1290.37L512.477 1291.02C644.613 1194.23 754.786 1075.79 837.308 964.028C919.806 852.299 974.778 747.098 996.39 676.734L991.61 675.266C990.957 677.394 990.272 679.554 989.557 681.746L782.728 918.052L511.996 984.486L222.782 918.052L34.1192 680.749C33.5205 678.898 32.944 677.07 32.3898 675.266L27.6102 676.734C49.2221 747.098 104.194 852.299 186.692 964.028ZM35.0134 683.48C58.0345 752.99 111.585 853.892 190.714 961.058C272.477 1071.79 381.443 1189.07 512 1285.16C642.557 1189.07 751.523 1071.79 833.286 961.058C912.149 854.252 965.605 753.668 988.754 684.182L783.272 918.948L512.004 985.514L222.218 918.948L35.0134 683.48Z" fill="#059467"/>
<path d="M35.0134 683.48C58.0345 752.99 111.585 853.892 190.714 961.058C272.477 1071.79 381.443 1189.07 512 1285.16C642.557 1189.07 751.523 1071.79 833.286 961.058C912.149 854.252 965.605 753.668 988.754 684.182L783.272 918.948L512.004 985.514L222.218 918.948L35.0134 683.48Z" fill="#059467"/>
</svg>
