<svg width="24" height="31" viewBox="0 0 24 31" fill="none" xmlns="http://www.w3.org/2000/svg">
<path fill-rule="evenodd" clip-rule="evenodd" d="M12 24C18.6274 24 24 18.6274 24 12C24 5.37258 18.6274 0 12 0C5.37258 0 0 5.37258 0 12C0 18.6274 5.37258 24 12 24ZM12 20.88C16.9213 20.88 20.9109 16.8506 20.9109 11.88C20.9109 6.90944 16.9213 2.88 12 2.88C7.07865 2.88 3.08911 6.90944 3.08911 11.88C3.08911 16.8506 7.07865 20.88 12 20.88Z" fill="#000000"/>
<path d="M5.76562 11.0391H5.27344C5.144 11.0391 5.03906 11.144 5.03906 11.2734V12.7266C5.03906 12.856 5.144 12.9609 5.27344 12.9609H5.76562V11.0391Z" fill="#000000"/>
<path d="M6 9.59766C6 9.46821 6.10493 9.36328 6.23438 9.36328H7.21875C7.34819 9.36328 7.45312 9.46821 7.45312 9.59766V14.4023C7.45312 14.5318 7.34819 14.6367 7.21875 14.6367H6.23438C6.10493 14.6367 6 14.5318 6 14.4023V9.59766Z" fill="#000000"/>
<path d="M7.6875 8.27344C7.6875 8.144 7.79243 8.03906 7.92188 8.03906H9.14062C9.27007 8.03906 9.375 8.144 9.375 8.27344V15.7266C9.375 15.856 9.27007 15.9609 9.14062 15.9609H7.92188C7.79243 15.9609 7.6875 15.856 7.6875 15.7266V8.27344Z" fill="#000000"/>
<path d="M9.84375 11.1562C9.84375 11.0915 9.89622 11.0391 9.96094 11.0391H14.0625C14.1272 11.0391 14.1797 11.0915 14.1797 11.1562V12.8438C14.1797 12.9085 14.1272 12.9609 14.0625 12.9609H9.96094C9.89622 12.9609 9.84375 12.9085 9.84375 12.8438V11.1562Z" fill="#000000"/>
<path d="M14.6484 8.27344C14.6484 8.144 14.7534 8.03906 14.8828 8.03906H16.1016C16.231 8.03906 16.3359 8.144 16.3359 8.27344V15.7266C16.3359 15.856 16.231 15.9609 16.1016 15.9609H14.8828C14.7534 15.9609 14.6484 15.856 14.6484 15.7266V8.27344Z" fill="#000000"/>
<path d="M16.5703 9.59766C16.5703 9.46821 16.6752 9.36328 16.8047 9.36328H17.7891C17.9185 9.36328 18.0234 9.46821 18.0234 9.59766V14.4023C18.0234 14.5318 17.9185 14.6367 17.7891 14.6367H16.8047C16.6752 14.6367 16.5703 14.5318 16.5703 14.4023V9.59766Z" fill="#000000"/>
<path d="M18.2578 11.0391H18.75C18.8794 11.0391 18.9844 11.144 18.9844 11.2734V12.7266C18.9844 12.856 18.8794 12.9609 18.75 12.9609H18.2578V11.0391Z" fill="#000000"/>
<path fill-rule="evenodd" clip-rule="evenodd" d="M4.37559 22.5944C6.30971 25.2138 8.89189 27.9898 11.9888 30.2582L12 30.2429L12.0112 30.2582C15.1081 27.9898 17.6903 25.2138 19.6244 22.5944C21.558 19.9758 22.8464 17.5101 23.3529 15.861L23.2409 15.8265C23.2255 15.8764 23.2095 15.927 23.1927 15.9784L18.3452 21.5168L11.9999 23.0739L5.22146 21.5168L0.799668 15.955C0.785636 15.9117 0.772125 15.8688 0.759137 15.8265L0.647113 15.861C1.15364 17.5101 2.44205 19.9758 4.37559 22.5944ZM0.820626 16.0191C1.36018 17.6482 2.61528 20.0131 4.46986 22.5248C6.38619 25.1201 8.94007 27.8688 12 30.121C15.0599 27.8688 17.6138 25.1201 19.5301 22.5248C21.3785 20.0215 22.6314 17.6641 23.1739 16.0355L18.3579 21.5378L12.0001 23.098L5.20822 21.5378L0.820626 16.0191Z" fill="#000000"/>
<path d="M0.820626 16.0191C1.36018 17.6482 2.61528 20.0131 4.46986 22.5248C6.38619 25.1201 8.94007 27.8688 12 30.121C15.0599 27.8688 17.6138 25.1201 19.5301 22.5248C21.3785 20.0215 22.6314 17.6641 23.1739 16.0355L18.3579 21.5378L12.0001 23.098L5.20822 21.5378L0.820626 16.0191Z" fill="#000000"/>
</svg>
